
  <svg
    xmlns="http://www.w3.org/2000/svg"
    xmlSpace="preserve"
    viewBox="0 0 1080 1080"
    {...props}
  >
    <path
      fill="#47704C"
      d="M1081 418v662.962H1.1V1.163H1081V418m-700.32-19.198c2.358-.919 5.024-3.05 7.022-2.544 8.28 2.097 14.335-.418 18.05-7.777.972-1.923.741-5.587-.514-7.29-3.899-5.286-8.555-10.014-13.343-15.44 8.769 1.032 16.84 3.434 24.619-1.512 6.753-4.293 12.615-9.15 15.185-17.06 7.471 4.772 8.405 7.892 4.595 15.033-.59 1.106-.987 2.337-1.325 3.552-2.444 8.792-4.875 11.127-11.807 11.218-2.015.026-4.03.004-6.046.004l-.644 1.626c.811.458 2.297.87 2.332 1.381.479 7.096.576 14.053-4.33 20.136-3.772 4.675-8.686 8.576-7.885 16.098.42 3.94-2.295 8.237-3.702 12.336-.673 1.96-1.597 3.835-2.04 4.881 3.77 2.092 6.403 3.972 9.331 5.05 2.542.937 5.59 1.758 8.107 1.214 3.84-.83 7.49-7.593 7.81-11.796.216-2.851 1.083-5.676 1.858-8.456 2.794-10.028 6.867-19.861 2.55-30.567-1.787-4.43.533-9.18 4.761-11.678 2.608-1.541 6.391-2.681 7.447-5.002 6.15-13.524 16.41-19.588 31.049-19.3 3.317.066 6.827-.742 9.949-1.934 3.738-1.426 3.788-3.678.648-6.242-2.295-1.874-4.624-3.708-7.35-5.89-1.332.394-3.93 1.646-6.592 1.8-2.25.13-5.472-.286-6.66-1.756-1.987-2.46-.863-4.983 2.348-6.65 2.377-1.235 1.664-5.112-.826-6.12-3.91-1.583-12.433.741-15.594 4.67l7.327 2.543-9.245 8.144h-13.437v-2.382c2.381.299 5.122 1.417 7.25.705 2.418-.81 5.772-3.022 6.09-5.038.652-4.151 2.335-9.417-3.771-11.997 19.576 2.792 35.136-.762 39.918-23.994 1.968 8.727 3.45 15.946 5.278 23.077.69 2.69 1.776 5.616 5.816 3.283 2.15-1.242 4.642-1.889 7.408-2.971l-1.093-15.011c4.433-1.302 9.1-3.351 13.945-3.936 7.146-.862 10.356-5.956 13.69-11.02 1.781-2.705 2.274-2.965 4.166-.35 5.327 7.36 12.23 11.661 21.641 11.194 3.568-.177 6.625-.703 10.114-2.57 8.277-4.428 8.57-3.823 8.2-12.84-.035-.85.367-2.099.998-2.534 3.92-2.702 6.155-6.163 4.983-11.006-.708-2.927-2-5.708-2.918-8.59-2.139-6.71-7.245-10.488-13.473-12.42-10.627-3.295-20.255-.933-28.057 7.127-1.965 2.031-2.945 5.017-4.623 8-1.772-2.523-2.652-4.685-4.254-5.867-3.25-2.396-6.684-5.447-10.416-6.104-8.107-1.428-16.468-1.794-24.102 2.74-.842.5-2.072.525-3.11.485-2.912-.113-5.818-.376-8.726-.58l.713 1.238-4.899 6.3c6.041 3.896 3.403 10.153 3.87 15.871-10.335-11.764-23.41-12.65-35.236-5.838-11.747 6.766-15.175 19.275-11.139 34.292-4.828-5.413-8.404-9.62-12.198-13.621-4.174-4.402-8.4-8.783-12.94-12.79-1.157-1.02-4.671-1.408-5.232-.668-1.452 1.913-4.942 2.191-4.346 6.01 1.045 6.697 5.959 10.65 9.738 15.468 3.623 4.618 7.105 9.345 11.157 14.694-4.457-1.135-7.773-2.43-11.18-2.742-5.2-.477-10.138.033-15.18 2.65-5.224 2.712-11.377 9.3-11.415 15.178-.04 6.065-.009 12.13-.009 18.434-2.642-1.476-4.728-3.309-7.078-3.757-2.126-.406-5.272-.034-6.64 1.329-1.646 1.642-2.357 3.903-1.107 7.419 1.837 5.166 5.611 8.1 8.627 11.933 2.768 3.516 5.622 6.965 8.653 10.711-8.37 0-16.494-.042-24.618.013-7.122.047-11.122 7.006-8.015 13.534 1.084 2.277 2.056 2.641 4.572 1.918 3.4-.977 7.077-1.251 10.643-1.304 3.417-.05 6.894.324 10.242 1.009 1.39.284 2.514 1.86 3.021 3.399-16.364-3.253-25.764-4.439-34.492 14.668-2.34 5.12-1.963 12.45-.395 18.087 1.337 4.806 6.175 8.638 9.759 13.282-1.948 3.717-7.683 2.5-11.658 5.83-7.366 6.169-11.203 13.013-12.517 21.97-1.612 10.986 2.15 21.471 3.066 32.223.206 2.422 1.568 3.576 4.31 3.469 6.854-.268 13.427-.894 20.282-2.63 11.596-2.939 23.847-3.29 37.013-4.872 4.784-21.64-.934-39.75-18.704-54.761 8.41-3.357 14.867-9.062 17.983-17.613 3.32-9.109 1.084-17.791-2.725-26.606l2.906-1.69-.502-1.154c-2.339.744-4.728 1.36-7.001 2.267-2.219.886-4.318 2.07-6.663 3.22 0-2.191 0-4.256.731-6.443M504.502 878c-4.332 0-8.718.423-12.98-.121-4.11-.525-8.536-1.282-12.031-3.306-5.76-3.337-11.745-3.597-17.978-3.556-5.354.036-10.722-.22-16.058.086-2.995.172-7.031.221-8.71 2.055-6.07 6.63-13.528 10.705-21.671 13.763-3.708 1.392-7.647 2.241-11.543 3.037-4.753.97-9.651 1.307-14.334 2.512-4.164 1.07-8.073 4.034-12.177 4.207-5.38.226-9.392 2.396-13.302 5.39-8.177 6.262-17.565 7.324-27.458 7.006-6.197-.2-9.417 5.384-6.05 10.305 3.156 4.61 7.344 7.94 13.425 7.617 8.88-.471 11.887 2.4 14.39 10.652 1.433 4.73-2.309 11.777-6.918 13.357-2.857.98-5.717 2.18-8.273 3.767-6.29 3.906-12.423 8.066-18.574 12.191-1.179.79-2.153 1.886-3.221 2.84 1.494 1.394 2.827 3.059 4.544 4.076.992.588 2.605.1 3.936.163.434.021.857.256 1.675.518l-1.97 3.33c1.622.387 3.13 1.028 4.653 1.067 15.76.404 31.52.72 47.282 1.027 1.48.029 2.963-.26 4.445-.263 6.413-.017 12.344-2.757 19.11-1.98 11.164 1.284 22.517 1.205 33.79 1.187 13.256-.021 26.51-.762 39.769-.853 7.254-.05 14.515.56 21.768.974 1.086.062 2.518.358 3.145 1.095 3.074 3.615 7.19 4.17 11.372 3.77 7.049-.677 14.557 4.181 21.241-2.859 2.963-3.12 2.064-5.942 2.07-8.874.006-3.788.944-5.172 5.04-5.36 4.23-.193 7.361 1.828 10.994 3.019 4.18 1.37 8.457 1.88 11.438 5.792.81 1.064 3.308 1.344 4.894 1.096.756-.118 1.468-2.259 1.717-3.575.873-4.612 6.116-9.919 10.794-10.095 6.33-.24 12.683-.231 19.012.01 4.242.161 8.461.912 12.69 1.399l.097.839-5.722 1.226c1.102 2.09 3.217 4.22 2.935 5.96-.596 3.67 1.426 4.764 3.927 5.449 3.427.938 6.962 1.784 10.49 1.991 14.182.832 28.374 1.517 42.57 2.035 13.423.489 26.853.816 40.283 1 11.996.164 23.996.032 35.994.037 1.331 0 2.95-.445 3.948.144 7.381 4.349 15.475 2.233 23.257 2.96 2.747.257 5.516 1.477 8.03 2.744 4.068 2.05 7.932 4.502 12.523 7.154 3.398-10.865 11.106-14.707 20.382-16.652 5.673-1.19 9.498.978 10.82 6.816.926 4.087 2.95 6.384 7.535 5.887 2.8-.304 5.678-.26 8.488-.01 4.448.397 9.416.285 12.1 4.648 2.747 4.465-.84 7.93-2.848 11.529-.08.142-.322.268-.308.377.28 2.124-.157 4.965 1.049 6.209 2.208 2.278 5.297 1.227 6.975-1.145 2.619-3.702 5.08-7.622 6.884-11.764 1.853-4.258 4.73-6.067 9.123-5.89 7.427.298 14.867.47 22.265 1.115 1.996.174 5.39 1.768 5.462 2.884.146 2.253-1.438 4.677-2.518 6.93-.704 1.468-1.778 2.759-2.686 4.13l1.74 1.744 7.035-4.923c.324.153 1.359 1.085 2.335 1.027 10.393-.612 19.694 3.98 29.542 5.903 3.109.607 3.55 2.109 3.873 4.548.583 4.399 8.414 10.622 12.759 10.657 3.419.029 6.91.272 10.23 1.028 3.427.78 4.41 4.175 2.446 6.968-3.39 4.823-6.31 5.104-13.376.399-4.069-2.71-8.347-3.013-12.692-2.052-9.125 2.019-17.949 2-27.125-.452-6.806-1.82-14.392-3.25-21.151-2.081-8.607 1.488-13.359 9.453-18.116 16.355-2.504 3.633-1.259 6.153 3.1 6.8 4.507.669 9.036 1.195 13.53 1.936 7.18 1.184 14.185 3.572 21.578.186 4.908-2.248 10.32-3.397 15.508-5.034 4.314-1.361 8.69-3.994 12.934-3.797 7.728.36 15.39 2.344 23.055 3.775 2.365.44 4.625 1.433 6.985 1.92 6.663 1.373 13.334 2.723 20.037 3.874 5.107.877 10.37 2.87 16.026-1.138-6.712-5.052-10.63-11.255-9.647-19.339.498-4.102-.732-5.904-4.478-7.593-6.075-2.739-13.768-4.636-12.402-14.137.043-.298-.163-.623-.21-.942-.946-6.416-1.885-12.832-2.825-19.248l1.564-.77 3.765 2.394c4.952-2.016 3.518-6.023 3.18-9.674-.134-1.453-.693-2.894-.659-4.33.263-10.943.733-21.882.84-32.825.016-1.662-1.285-4.613-2.358-4.802-7.29-1.284-12.044-6.483-17.14-10.864-5.028-4.322-10.785-8.88-13.443-14.622-4.21-9.094-10.782-15.371-18-21.644-8.654-7.52-17.252-13.978-29.216-16.447-10.436-2.154-18.62-2.138-26.352 5.949-3.388 3.544-8.22 5.9-12.75 8.054-1.565.745-5.415-.094-6.102-1.36-1.663-3.064-4.193-3.09-6.28-2.33-3.973 1.445-6.893.157-9.879-2.103-4.204-3.181-8.87-4.315-14.239-4.171-20.92.56-41.851.703-62.776 1.12-8.1.162-16.19.746-24.288.902-2.224.043-5.283.016-6.556-1.317-5.497-5.76-12.387-4.196-19.019-4.74-3.577-.293-7.052-1.87-10.565-2.892-3.353-.976-6.675-2.062-10.05-2.95-1.713-.45-3.59-.334-5.26-.88-7.612-2.488-15.116-5.414-23.401-4.195-.73.107-1.687-.166-2.302-.6-5.531-3.9-11.823-3.327-18.09-3.463-2.804-.06-5.925-.691-8.307-2.083-5.534-3.235-11.298-5.041-17.672-4.795-6.931.267-13.88.427-20.777 1.086-3.131.299-6.658.984-9.123 2.736-4.398 3.125-8.896 4.503-14.194 4.211-4.32-.237-8.708-.437-12.982.061-4.292.501-9.014.98-12.597 3.087-6.087 3.578-12.472 4.621-19.17 4.76-8.828.181-17.663.044-27.494.044M287.924 392.299c-1.292 2.807-2.134 5.963-3.978 8.343-3.113 4.019-4.715 7.76-2.367 12.834.724 1.565-.49 4.024-.811 6.075-.322 2.045-.639 4.092-.926 5.936 4.234 1.991 8.171 3.316 11.514 5.536 5.17 3.432 15.055 2.35 18.673-2.645.534-.737.72-1.752.968-2.665 1.311-4.819 3.08-9.58 3.746-14.49.695-5.115 2.068-9.996-1.123-15.545-5.726-9.958-3.13-20.642 5.211-29.028 2.101-2.113 4.104-4.323 6.117-6.522 1.909-2.085 3.377-5.132 5.732-6.142 6.008-2.577 7.93-6.672 7.41-12.89-.405-4.837 4.548-11.283 9.134-11.9 1.764-.237 4.662.883 5.495 2.297 1.66 2.818 2.695 6.202 3.172 9.471.633 4.344 3.731 7.214 7.368 6.101-.438-2.668-.804-5.323-1.324-7.948-.652-3.296-1.178-6.65-2.216-9.83-1.336-4.091-3.205-8.005-4.687-12.053-.825-2.256-1.094-4.729-2.025-6.93-2.27-5.36-1.342-9.73 3.402-13.008 2.592-1.791 4.392-3.59 4.756-7.075.45-4.314 1.747-8.554 2.847-12.782 1.821-7.004 11.852-13.218 18.2-11.038 2.02.693 5.11-.172 7.122-1.339 4.652-2.7 9.31-4.66 14.81-4.093 1.642.17 3.339.098 4.983-.093 4.717-.55 9.45-.512 13.04 2.937 3.428 3.295 6.749 2.494 10.39.97 5.35-2.24 10.711-4.45 16.072-6.662 2.666-1.1 5.748-1.658 7.932-3.367 5.444-4.259 10.481-9.037 16.395-14.234 6.112 1.137 13.805 3.944 20.368-.671-.807-3.448-2.427-6.314-1.769-8.493 1.021-3.382 4.6-3.814 7.939-3.347 1.286.18 2.553.488 3.837.683 2.896.439 6.386 2.085 8.59 1.04 8.273-3.921 16.596-4.319 25.372-2.792 5.148.896 10.282 1.27 14.45 5.125 1.578 1.459 3.962 2.155 6.086 2.889 3.191 1.103 6.437 2.123 9.735 2.818 2.452.517 5.026.659 7.542.628 6.474-.08 13.337-1.784 19.314-.157 6.513 1.773 12.235 6.514 18.22 10.099.878.526 1.362 1.782 1.92 2.763 3.055 5.375 7.93 8.592 13.433 10.807 1.42.572 3.517-.149 5.185-.66 3.05-.932 5.986-3.012 9.017-3.108 16.21-.512 32.028.967 45.393 11.72 1.36 1.093 3.746 1.643 4.23 2.967 2.272 6.215 7.569 6.447 12.743 7.176 3.55.5 7.08 1.16 10.64 1.567 2.104.242 4.279-.073 6.368.233 2.521.368 5.447.479 7.38 1.852 4.395 3.12 4.956 8.383 4.947 13.21-.022 12.428-.684 24.854-.86 37.285-.166 11.588 2.27 13.924 13.645 13.846 5.834-.04 6.994-1.301 7.362-7.18a79.72 79.72 0 0 1 1.383-10.673c.978-4.872 4.947-4.866 8.433-3.987 3.697.933 3.736 4.171 3.163 7.463-.806 4.63-1.346 9.305-2.025 13.957-.867 5.937 2.73 8.559 8.948 11.078l-2.078-16.386c4.48-.16 5.473-1.684 2.887-5.128-.928-1.236-1.645-2.985-1.645-4.5 0-7.022-4.103-11.684-8.348-16.628-2.614-3.045-4.09-7.14-5.751-10.909-1.727-3.918-2.424-8.472-7.408-10.093-.319.599-.473 1.408-.94 1.679-2.77 1.606-3.62 7.435-8.547 4.269-4.024-2.586-2.079-6.268-1.194-9.655.205-.787.626-1.59.575-2.36-.145-2.196-.072-4.541-.853-6.524-.874-2.215-2.396-4.267-3.985-6.086-2.817-3.224-5.389-7.672-8.998-8.933-4.363-1.524-7.47-3.397-9.649-7.26-1.806-3.203-4.39-4.875-8.267-5.289-3.122-.332-6.869-1.142-8.99-3.158-4.027-3.829-8.54-3.428-13.312-3.771-17.218-1.24-34.766 3.269-51.76-4.436-4.312-1.955-9.377-2.595-14.03-5.219-5.76-3.249-12.833-4.098-19.192-6.393-2.362-.852-5.462-2.414-6.237-4.421-2.935-7.597-7.357-12.88-15.733-14.552-4.843-.966-9.7-2.346-14.218-4.307-3.784-1.641-6.95-4.655-10.642-6.577-3.288-1.712-6.556-2.91-7.817-7.059-.467-1.538-2.625-3.152-4.313-3.603-3.276-.875-6.778-1.385-10.163-1.283-13.427.407-19.293-7.03-18.216-19.034.158-1.759 1.565-4.265 3.038-4.877 3.677-1.528 7.713-2.212 11.626-3.148 5.55-1.329 7.04-5.36 3.081-9.533-5.377-5.67-10.286-12.136-18.843-13.499-1.19-.19-2.307-1.074-3.374-1.767-4.086-2.65-8.064-5.474-12.225-8-3.267-1.982-6.688-3.734-10.14-5.38-4.298-2.051-6.433-7.648-12.513-6.97-3.334.372-6.976-.101-10.197-1.1-4.78-1.484-8.08-.726-10.799 3.708-3.895 6.354-4.844 6.41-8.496.166-2.405-4.11-5.718-5.209-9.899-4.568-4.263.653-6.696 2.913-7.54 7.616-1.505 8.395-2.568 8.61-10.998 10.445-4.66 1.014-9.372 2.761-13.48 5.169-12.974 7.604-26.042 15.025-40.409 19.606-5.662 1.806-10.437 4.251-14.274 8.796-1.439 1.705-3.53 2.888-5.409 4.188-3.705 2.562-7.484 5.019-11.202 7.563-1.615 1.105-3.008 2.65-4.755 3.43-9.858 4.399-13.518 13.534-16.842 22.601-1.07 2.915.67 6.746.436 10.11-.33 4.724 1.293 7.235 6.006 8.546 5.69 1.584 8.801 7.294 8.031 12.257-1.797 11.583-3.415 23.196-4.913 34.822-1.299 10.084-4.59 18.934-13.646 24.719-.765.488-1.44 1.732-1.475 2.652-.275 6.97-3.286 12.38-8.567 16.867-1.323 1.124-1.476 3.543-2.384 5.251-3.047 5.734-5.347 12.174-9.567 16.877-3.349 3.731-5.384 7.402-6.432 12.018-.428 1.884-.616 4.054-1.693 5.522-6.486 8.84-6.443 18.956-6.36 29.196.02 2.316-.464 5.214-1.872 6.85-3.404 3.955-4.105 8.285-4.14 13.236-.034 4.873.214 10.242-1.676 14.5-3.663 8.252-3.915 16.376-2.84 25.03.903 7.278 1.232 14.426-1.334 21.868-1.906 5.528-1.11 12.09-.896 18.169.048 1.375 2.634 3.664 4.114 3.715 1.588.055 3.468-1.833 4.795-3.266.754-.815.854-2.41.909-3.668.314-7.25 1.085-14.338 5.835-20.316.493-.62 1.08-1.484 1.018-2.18-.752-8.453-.893-17.056-2.71-25.284-1.188-5.372-1.79-11.643 2.199-15.64 3.667-3.675 4.48-7.798 4.943-12.779.441-4.739 2.993-9.276 4.577-13.916.77-2.254 1.87-4.5 2.081-6.817.407-4.466 2.656-8.1 8.115-10.577-1.3 2.676-1.916 4.657-3.09 6.219-2.728 3.63-5.139 7.206-3.01 12.83m245.077 38.22.36 1.315c-5.142.722-10.265 1.794-15.432 2.081-7.096.395-13.873-.914-20.29-4.468-2.847-1.576-6.482-1.849-9.81-2.415-10.23-1.74-18.656 3.52-28.258 7.676 2.463 2.242 5.637 3.848 6.657 6.337 1.914 4.67 2.827 9.81 3.701 14.834.868 4.988-1.598 8.352-5.984 10.781-2.225 1.232-4.554 3.02-5.778 5.162-2.714 4.751-5.02 9.783-7.013 14.888-2.29 5.87-.102 9.728 5.86 12.334 2.068.903 4.072 2.435 5.518 4.17 2.462 2.954 4.466 6.29 6.65 9.475 1.561 2.275 3.131 4.545 4.644 6.852 1.668 2.545 3.172 5.203 4.944 7.671 1.24 1.73 3.2 3.019 4.164 4.858 4.02 7.666 10.491 10.932 18.826 10.893 4.728-.022 8.427 1.596 9.792 6.253 1.408 4.801 5.133 5.328 9.023 5.741 2.14.228 4.352-.165 6.483.109 1.718.22 4.5.625 4.849 1.629 1.925 5.553 4.157 11.265 4.468 17.02.215 3.979-1.402 8.854-6.296 10.706-6.55 2.479-8.786 6.345-7.652 15.37 4.033-1.331 8.135-2.49 12.065-4.074 1.751-.706 3.152-2.275 4.72-3.44 5.408-4.02 10.457-8.74 16.368-11.782 3.445-1.772 5.108-3.788 6.488-7 1.581-3.678 3.184-7.547 5.699-10.567 2.464-2.96 6.11-4.925 9.195-7.379 12.463-9.908 23.779-21.324 39.113-27.296 7.188-2.8 9.102-9.025 7.252-16.637-2.108-8.671-.091-16.648 8.171-21.918 5.653-3.607 9.075-9.148 8.364-16.196-.195-1.933-1.59-4.361-3.192-5.424-5.792-3.847-11.885-6.61-19.302-4.187-3.951 1.29-8.588.7-12.354 2.29-6.455 2.723-11.697 2.81-16.931-1.645-4.189-3.565-8.116-7.436-12.186-11.142-.591-.537-1.362-1.339-1.998-1.294-6.964.49-11.78-4.304-17.369-7.088-1.488-.741-3.278-2.858-3.198-4.243.093-1.596 1.924-3.284 3.346-4.541.883-.78 2.438-.759 3.638-1.231 3.253-1.28 3.554-3.446.77-5.23-2.395-1.535-5.303-2.332-8.057-3.233-6.22-2.035-12.512-3.896-18.527.515-.902.662-1.363 1.924-1.5 3.47m-414.73-299.773c.89 3.966 3.16 5.402 7.394 5.396 6.21-.008 7.547 2.144 4.998 7.47-1.868 3.903.194 6.538 2.377 8.744 6.219 6.285 6.964 13.78 1.6 21.284-.75-.215-1.536-.35-2.247-.656-12.522-5.4-12.646-2.887-12.398-16.736.105-5.902-2.869-10.499-6.025-14.966-6.077 1.85-7.094 2.509-8.672 8.175-2.413 8.667-3.05 17.728-7.084 26.089-1.972 4.085-4.003 4.895-7.903 4.273-1.445-.23-3.428.162-4.54 1.053-6.38 5.108-6.134 12.79-6.578 19.792-.507 8.017.31 16.113.422 24.176.048 3.477.767 6.767 4.259 7.938 2.884.967 6.123 1.05 9.219 1.167 3.188.12 10.5-6.204 10.843-9.347.502-4.577.901-9.18 1.022-13.78.214-8.116 7.978-15.02 15.838-13.704.995.167 2.458 1.147 2.632 1.976.66 3.14 1.596 6.485 1.113 9.545-.97 6.125-.315 8.32 4.657 10.052 4.616 1.608 10.779-.997 12.935-4.842 1.82-3.244 4.176-6.254 6.659-9.042 3.054-3.429 5.16-2.8 7.768 1.11 1.342 2.01 3.437 4.361 5.517 4.733 1.323.237 3.616-2.643 4.826-4.538 3.189-4.994 6.595-5.567 10.545-1.051 2.126 2.429 3.591 5.424 5.593 7.977 2.723 3.471 5.289 7.333 10.598 6.97 5.929-.406 13.274-8.266 13.37-14.249.125-7.856-1.832-15.012-6.282-21.598-1.457-2.156-2-4.992-2.69-7.588-.787-2.96-.616-6.355-2.017-8.932-3.416-6.281-5.537-12.152-4.483-19.861 1.214-8.879-.443-18.123-.419-27.208.007-2.787 1.103-5.729 2.307-8.317 1.564-3.365 4.039-6.312 5.553-9.694 1.316-2.941 3.183-3.657 6.165-3.638 3.575.024 7.856.586 10.592-1.098 6.597-4.063 15.12-6.341 17.501-15.358.145-.547.995-.87 1.366-1.402 3.352-4.797 8.77-5.462 13.767-7.104 5.72-1.88 6.362-3.382 4.167-7.265-7.847.555-15.507 5.976-23.429-.45-2.539 4.965-6.627 7.435-12.432 8.645-12.805 2.67-25.516 4.473-38.534 2.11-1.753-.318-3.502-.864-5.26-.9-7.012-.142-14.163.735-21.011-.349-13.063-2.067-21.697 4.661-21.95 18.031-.04 2.164-.61 4.642-1.787 6.406-6.033 9.038-11.781 18.084-9.862 30.56m35.834 361.709c-4.128 6.799-5.346 14.093-5.412 22.078-.038 4.717-.065 9.205 2.598 12.802 2.475 3.341 2.059 6.459 1.648 9.96-.183 1.567.115 3.191.195 4.79l1.555-1.14c2.059.677 4.218 1.145 6.156 2.073 4.348 2.084 7.886 1.199 7.357-4.204-.303-3.094 1.443-6.39 2.267-9.594 1.582 5.991 1.035 11.958 2.959 16.978 2.162 5.64 1.98 11.183 2.747 16.821.793 5.846 2.932 11.518 4.608 17.23.941 3.206 2.014 6.388 3.264 9.485.747 1.85 1.63 3.842 3.013 5.2 3.168 3.111 4.574 6.478 3.585 10.946-.44 1.986-.681 4.373.01 6.189 2.779 7.308 3.855 14.782 3.387 22.545-.046.768.454 1.57.7 2.355.948-.979 1.283-1.88 1.225-2.755-.352-5.32.334-10.345 3.023-15.112 3.615-6.408 3.05-12.2-3.198-16.877-.807-.604-1.252-1.693-1.865-2.557l.627-1.157 7.551 2.368c0-6.65-.22-13.836.05-21.004.45-12.04 1.036-24.084 1.972-36.094.226-2.906 2.063-5.68 3.12-8.529 1.273-3.429 2.615-6.839 3.703-10.327.525-1.687.3-3.608.821-5.297 4.404-14.268 5.581-28.9 5.278-43.738-.052-2.581.906-5.191.794-7.762-.149-3.384.31-7.914-1.61-9.892-5.572-5.733-4.984-12.392-5.44-19.302-.237-3.61-2.547-7.097-3.992-10.61-1.213-2.95-3.368-5.78-3.651-8.8-1.044-11.153-1.385-22.37-2.18-33.55-.699-9.803-1.651-19.59-2.435-28.725-.55 2.13-.815 5.139-2.077 7.645-3.243 6.44-7.02 12.61-10.413 18.977-3.777 7.089-7.993 13.188-17.505 12.231-2.884-.29-6.19.627-6.447 4.356-.526 7.638-.478 14.831 6.343 20.752 8.527 7.402 8.529 10.064 3.562 20.666-1.408 3.005-1.107 5.188 1.067 8.02 1.755 2.286 3.427 6.765 2.342 8.722-3.92 7.07-8.411 14.046-13.883 19.95-3.745 4.04-6.256 7.984-7.419 13.887M135.521 672.01c-4.353 2.446-4.937 7.15-6.419 11.196-.818 2.234-.792 4.844-.817 7.288-.062 6.124-.195 12.266.223 18.365.209 3.044 1.618 5.961-1.82 8.163-.423.271-.057 1.774-.057 3.238l4.556-3.31 2.215 6.301c4.117-5.333 3.285-10.29 1.067-15.32-2.777-6.3-.9-11.491 3.86-16.086 1.113-1.074 1.768-2.734 2.335-4.237.978-2.59 1.723-5.27 2.565-7.912 2.386 4.193 2.988 8.126 4.703 11.494 1.75 3.436 4.626 6.292 6.95 9.446 3.278 4.452 9.13 4.845 11.966-.003 1.894-3.236 3.042-7.72 2.51-11.35-.598-4.08-4.266-7.656-5.14-11.763-1.15-5.404-1.302-11.126-1.095-16.683.195-5.224-1.057-8.202-6.778-8.944-5.029-.652-8.16-4.841-8.329-9.84-.095-2.83.003-5.664-.045-8.494-.311-18.252-1.41-36.538-.601-54.74.348-7.829-.657-14.723-3.292-21.793-.93-2.494-1.267-5.253-1.563-7.925-.353-3.191.244-6.606-.665-9.591-1.743-5.728-3.775-11.477-6.576-16.746-3.387-6.37-8.868-10.683-15.84-13.206-1.544-.558-2.931-3.122-3.316-4.984-.788-3.82-.128-8.04-1.37-11.644-2.142-6.219-5.28-12.094-7.99-18.091-3.032 5.593-7.868 10.853-7.983 18.687-.052 3.587-1.471 7.788-3.703 10.556-3.032 3.762-7.05 7.202-11.362 9.326-4.173 2.055-5.895 5.029-6.315 8.939-.492 4.593-1.585 9.82.038 13.76 1.904 4.62 3.615 8.868 3.643 13.938.04 7.42 2.25 9.472 9.61 9.948.663.043 1.336-.04 1.997.016 6.488.554 13.494 11.017 11.295 17.154-1.417 3.956-4.478 7.674-4.723 11.627-.507 8.175-4.284 14.297-8.891 20.6-3.875 5.302-10.479 8.713-10.997 16.576-.342 5.193 1.09 8.78 4.023 8.725 2.018-4.996 3.536-9.69 5.786-14.003 1.538-2.949 4.595-2.38 5.8.773.884 2.312 1.599 4.689 2.343 6.9.918-.845 1.766-1.565 2.545-2.353 4-4.043 6.186-8.744 4.88-14.534-1.32-5.847 2.67-10.391 8.518-9.404.962.162 2.491 1.09 2.56 1.782.675 6.803 7.06 11.517 6.558 18.991-.128 1.899 3.876 5.465 6.354 5.846 4.508.694 4.321 3.314 4.222 6.242a466.291 466.291 0 0 1-.991 18.26c-.205 2.793-.79 5.557-1.288 8.9l3.634 4.198 1.89-7.84c7.372 5.748 10.637 13.367 8.235 18.586-2.75-1.701-5.44-3.365-8.915-5.025m464.464-46.183c-.347 1.554-.175 3.65-1.133 4.567-3.836 3.675-1.136 8.021-1.583 12-.05.45 1.342 1.373 2.178 1.552 2.658.568 9.637-4.916 10.637-7.56 1.62-4.282 3.609-8.438 5.66-12.538.871-1.742 2.295-3.208 4.036-5.571 3.722 8.421 7.023 15.699 10.16 23.046 2.5 5.857 2.78 6.166 11.43 2.592 3.873-1.6 3.058-5.126 1.813-8.297a1971.97 1971.97 0 0 0-6.405-16.156c-1.206-2.997-2.377-6.017-3.782-8.922-1.815-3.754-4.035-7.324-5.647-11.155-.374-.889.833-2.634 1.616-3.778 1.713-2.503 5.3-2.932 6.15-6.763 1.866-8.429 5.587-10.47 14.199-8.853 6.795 1.276 9.948 6.797 8.655 15.154-.501 3.242-8.362 8.42-12.29 7.634-4.579-.915-7.329 1.346-8.47 5.042-1.31 4.248 1.894 6.506 5.327 8.204 6.263 3.097 11.505-.214 16.438-3.146 3.405-2.024 5.907-5.51 9.058-8.038 3.69-2.96 2.183-7.414 3.632-10.935 2.722-6.612 1.479-12.316-2.894-17.86 1.891.797 3.276 2.427 4.97 2.866 2.968.77 6.179.566 9.193 1.213 4.637.993 8.42.958 12.046-3.19 2.244-2.566 4.69-4.928 6.92-7.629 4.272-5.176 7.252-10.547 5.854-17.096-.443-2.075-3.872-4.63-6.15-4.863-2.043-.208-6.17 2.376-6.25 3.895-.236 4.386-.663 8.203-4.352 11.054-2.298 1.777-4.554 3.61-6.83 5.417l-1.356-1.392c.5-1.293.765-2.753 1.543-3.848 2.339-3.287 4.59-6.715 7.408-9.562 3.866-3.904 2.846-8.678 1.697-12.564-1.149-3.888-3.116-8.936-10.924-7.234 2.105-4.49 3.396-7.835 5.367-10.713.251-.367 4.056 1.7 6.215 2.639.744.324 1.498.626 2.23.974 4.12 1.95 8.234 3.913 11.677 5.551.864 6.35-2.73 12.64 3.922 17.678l11.384-10.794c5.77 1.436 6.895 1.373 10.23-4.001 1.07-1.721.806-6.467-.074-6.826-4.27-1.745-3.306-5.016-3.494-8.142-.342-5.686-4.802-8.242-9.578-5.58-6.695 3.733-10.023 3.377-14.982-.93 2.984-1.783 7.24-3.017 9.347-5.85 4.959-6.664 8.778-14.166 13.324-21.155 1.082-1.662 3.077-2.94 4.932-3.768.6-.267 2.241 1.335 3.152 2.318 3.248 3.506 2.194 7.375.592 11.144-2.073 4.876-5.889 9.005-4.953 15.08.479 3.109 1.175 4.651 4.447 4.288 4.384-.488 6.588-3.164 9.325-6.626 6.294-7.961 6.864-16.71 6.395-25.979-.236-4.67-6.715-13.467-11.156-13.911-6.688-.669-14.016-2.858-19.509 3.441-2.319 2.66-4.407 5.56-6.295 8.544-2.385 3.77-4.894 7.564-6.527 11.674-1.256 3.159-3.263 4.291-5.534 2.642-1.614-1.172-2.734-4.122-2.702-6.257.097-6.336 2.028-11.952 6.95-16.637 1.715-1.633 2.512-5.816 1.706-8.13-1.144-3.283-11.21-3.823-13.21-.824-4.009 6.008-8.5 11.9-7.812 19.92.397 4.63.357 9.347-.002 13.985-.423 5.474 2.578 8.858 6.648 12.111-3.718 0-7.05-.029-10.381.018-.977.014-2.45-.116-2.85.433-3.603 4.97-9.461 9.013-7.34 16.522 1.05 3.717-2.102 5.988-4.115 6.698-4.757 1.676-6.914 4.972-9.05 9.046-1.775 3.387-4.209 6.581-6.926 9.282-2.876 2.859-5.117 5.524-2.847 9.604.983 1.765 2.436 3.268 4.042 5.37-3.534-.742-7.257-2.743-8.946-1.637-4.11 2.69-9.428.484-13.384 5.256-3.16 3.812-8.446 5.696-8.964 11.801-.094 1.098-2.398 2.896-3.606 2.838-3.195-.155-6.35-1.152-8.98-1.7-3.034 4.83-3.141 8.828-1.387 13.318.918 2.35.162 5.354.162 8.576-2.003-.51-3.162-.633-4.168-1.09-5.572-2.533-10.95-5.628-16.728-7.507-2.468-.802-6.915-.064-8.317 1.69-1.383 1.73-4.17 5.672-.726 8.457 3.19 2.58 6.737 4.8 10.367 6.725 3.348 1.777 7.176 2.672 10.452 4.55 1.09.626 1.54 3.107 1.49 4.715-.032 1.041-1.503 2.037-2.367 3.883M478.001 374.471c.673 4.007 1.264 8.03 2.034 12.018 2.604 13.485 9.587 19.022 21.912 17.3 5.46-.762 10.882-3.237 15.836-5.853 7.552-3.989 15.458-7.902 21.754-13.49 5.262-4.671 10.542-7.231 17.189-7.364 2.865-.057 3.962-1.024 4.683-3.76 1.44-5.458-3.644-15.517-9.145-16.206-8.61-1.08-17.305-1.86-25.972-1.953-5.062-.055-10.282.988-13.305 6.276-1.826 3.194-4.997 3.457-8.527 3.706-7.28.514-14.535 1.656-21.73 2.941-2.617.468-5.376 1.79-4.729 6.385M59.908 660.274c-2.98 2.372-4.086-.492-5.165-2.147-2.184-3.348-4.05-2.806-4.82.525-1.602 6.937-2.66 14.058.042 20.968 1.19 3.044 3.136 5.835 7.217 2.528.72 1.744 1.623 3.041 1.764 4.417.787 7.662 1.734 15.334 1.942 23.021.16 5.888 2.432 10.68 5.528 15.369 1.333 2.017 2.381 4.222 3.567 6.337 3.47 6.188 6.775 12.483 10.585 18.456.637.998 4.122 1.415 5.132.623 1.24-.972 2.257-3.957 1.649-5.279-4.678-10.161-3.203-15.967 6.01-22.333.905-.624 1.494-2.249 1.564-3.447.46-7.92.849-15.848.993-23.778.033-1.849-.513-4.038-1.569-5.517-4.165-5.837-8.64-11.452-12.996-17.152-.787-1.03-1.902-1.964-2.264-3.13-.92-2.963-1.136-6.277-5.591-6.073-.454.021-1.291-1.76-1.44-2.78-.762-5.188 2.052-6.74 7.281-5.977-3.21-2.917-6.297-4.91-9.106-7.24-3.783-3.14-6.901-2.415-8.155 2.282-.834 3.128-1.393 6.328-2.168 10.327m49.908 344.052c.464.3 1.241.943 1.345.848 1.755-1.605 3.64-3.139 5.072-5.013 2.686-3.515 6.172-4.022 10.343-4.414 3.825-.36 7.47-2.635 11.372-4.135 4.012 4.92 8.883 1.393 13.601.467 2.791-.548 5.794-2.003 8.322-1.414 3.277.763 6.034 1.018 9.26-.15 3.169-1.147 6.394-1.368 7.986 3.083.99 2.77 3.41 2.929 5.958 1.413 2.614-1.555 2.39-3.307 1.588-6.008-.895-3.022-1.03-6.472-.611-9.618.348-2.617 1.976-5.063 3.084-7.696l-9.588-9.898c-1.022 2.586-1.247 4.168-2.14 5.129-.9.97-2.971 2.197-3.652 1.802-3.963-2.303-8.317-4.465-11.31-7.782-4.795-5.315-10.864-4.617-16.46-4.219-7.223.514-10.614 7.326-14.808 12.13-5.312 6.085-11.647 7.963-18.45 4.131-2.027-1.142-4.237-1.96-7.272-3.34-2.828 6.496-5.602 12.477-8.03 18.596-1.332 3.357.599 6.48 3.775 5.54 7.971-2.364 9.263 2.006 9.729 8.03.05.655.227 1.301.886 2.518m92.287-159.789c.631 1.646 2.086 3.489 1.747 4.9-1.216 5.061 2.76 7.523 4.983 10.68 2.111 2.999 5.215 5.28 7.754 7.998 5.095 5.454 9.562 5.858 14.527.113 7.251-8.39 13.817-17.367 20.895-25.911 2.576-3.11 5.815-5.666 8.693-8.533 2.57-2.558 3.36-5.924.318-8.016-4.975-3.42-10.507-6.513-16.962-5.22-5.836 1.17-9.736-.349-13.106-5.314-1.044-1.538-3.064-2.415-4.637-3.595l-1.023 1.043-7.387-11.632c-.834 2.725-1.828 4.481-1.812 6.228.036 3.923.809 7.84.846 11.762.046 4.795-2.38 6.766-6.805 5.48-4.018-1.167-5.34 1.024-6.097 4.147-.829 3.424-1.462 6.895-2.172 10.303-1.22 0-1.91.117-2.54-.03-.774-.18-1.475-.758-2.246-.851-2.472-.3-4.119 2.186-2.247 2.96 1.232.51 3.1-.518 4.93-.91.693 1.14 1.446 2.384 2.34 4.398m245.354-241.62c1.312-1.579 2.567-3.21 3.948-4.726 4.062-4.46 3.694-9.894 3.65-15.35-.103-12.369-10.443-22.863-22.71-22.863h-8.095c4.475-2.507 4.556-6.454 4.556-9.924 0-2.417-1.738-4.306-4.994-4.313-.932-.002-2.006-2.672-2.752-4.243-1.07-2.25-1.457-4.951-2.913-6.868-4.063-5.346-8.536-10.236-15.603-11.885-6.564-1.532-12.14-.277-18.238 2.83-9.987 5.09-13.328 8.961-13.327 19.956 0 2.497.13 5.003-.024 7.49-.453 7.282 3.11 12.234 8.865 16.112.803.541 1 1.983 1.276 2.575l-9.801 5.91v12.59c3.43-.235 6.923.393 9.522-.85 4.048-1.937 7.427-5.234 11.2-7.79 4.443-3.007 9.025-5.808 13.504-8.762 1.432-.944 2.732-2.087 4.092-3.14.292.345.583.69.875 1.033-1.821 3.44-4.341 6.698-5.298 10.364-1.386 5.31-2.169 10.29 2.165 15.837 3.073 3.932 5.296 7.997 9.618 11.21 2.937 2.185 5.394 1.321 8.022 1.964 8.656 2.12 16.114.492 22.462-7.157m41.523 20.51-5.876 6.787c0-2.818-.071-4.113.012-5.399.617-9.558 1.45-19.107 1.817-28.674.15-3.942-4.013-8.98-6.7-9.164-8.87-.606-11.619 1.071-13.272 8.074-.144.61-.257 1.306-.624 1.776-5.199 6.655-10.504 13.227-15.63 19.938-1.621 2.124-2.57 4.766-4.211 6.87-2.839 3.64-6.573 6.718-8.747 10.68-1.12 2.043-.657 6.402.878 8.019 1.355 1.428 5.82 1.555 7.784.378 3.07-1.841 5.283-5.188 7.685-8.044a275.636 275.636 0 0 0 9.102-11.406c2.622-3.474 5.04-7.103 7.052-9.96l4.301 40.602c.851.041 1.664.12 2.476.112 4.533-.044 9.389 1.27 11.625-4.961 1.117-3.113 3.535-5.839 5.677-8.487 4.365-5.397 8.941-10.623 13.648-16.175 0 10.846.385 21.36-.129 31.83-.374 7.63 5.178 13.406 13.066 10.076.383-4.449 1.466-8.981 1.022-13.358-1.405-13.863-1.27-27.623 1.3-41.312 1.106-5.892.081-10.59-3.274-11.57-5.957-1.74-13.64-.34-16.034 5.52-2.772 6.792-8.479 11.468-12.948 17.848M114.475 726c-1.188-.52-2.394-1.005-3.562-1.569-3.678-1.774-6.422-.837-7.6 3.012-.755 2.465-1.325 5.134-1.23 7.684.253 6.79-1.508 12.825-5.05 18.611-.983 1.605-1.214 5.188-.165 6.234 3.206 3.199 6.98 6 10.942 8.23 6.832 3.85 14.222 2.192 19.87-1.716 12.586-8.707 20.245-21.683 27.716-35.485l6.352.904v-7.406c-3.815-.522-7.355-1.248-10.917-1.375-1.431-.051-3.151.929-4.324 1.928a233.497 233.497 0 0 0-11.335 10.337c-2.543 2.475-4.023 2.07-5.55-1.057-.805-1.647-2.638-4.207-3.706-4.066-4.537.595-7.323-2.338-11.44-4.266m533.953-396.973c-6.09 3.83-6.524 12.653-.706 16.805 2.986-1.388 6.366-2.367 8.998-4.343 2.84-2.132 4.865-5.32 7.507-7.766.667-.618 2.896-.7 3.44-.12 4.566 4.86 8.978 9.873 13.288 14.966 2.511 2.968 6.83 3.339 10.78.475 3.036-2.202 3.385-5.573 1.43-8.143-3.514-4.62-7.701-8.743-11.73-12.956-4.766-4.981-4.588-7.03 1.375-10.853 1.348-.864 2.904-1.404 4.354-2.087.76 1.359 1.245 2.772 2.17 3.782 4.189 4.575 8.472 9.065 12.789 13.52 1.29 1.333 2.747 3.384 4.219 3.466 2.51.139 6.802-.393 7.302-1.758 1.195-3.264 2.21-8.457.48-10.603-7.063-8.768-15.046-16.823-23.06-24.769-1.211-1.201-5.076-1.43-6.511-.414-6.798 4.82-13.322 10.06-19.663 15.48-5.501 4.702-10.626 9.846-16.462 15.318m34.673 78.837c7.801.999 13.982-2.979 20.373-6.487 4.765-2.616 9.5-5.719 14.65-7.072 4.657-1.224 8.066-2.317 10.739-6.947 1.373-2.38 2.71-3.474 1.039-6-2.29-3.46-5.444-5.906-9.358-3.95-2.881 1.44-5.357 3.443-8.665 4.437-4.937 1.485-9.39 4.681-14.355 5.946-6.17 1.572-11.41-5.353-9.641-11.507 1.701-5.918 7.388-6.542 11.465-9.185 6.207-4.024 16.263-2.96 17.015-14.068-4.241-6.025-8.704-6.552-16.546-2.067-5.725 3.274-11.598 6.38-17.67 8.932-4.63 1.947-7.229 6.71-7.7 9.808-1.587 10.437-1.528 21.254 9.305 27.85l-4.944 13.591c3.683 1.188 3.683 1.188 4.293-3.281M59.508 798.994c.119 9.878.135 19.759.39 29.633.2 7.744 1.588 15.578.747 23.184-.561 5.072.178 8.885 3.633 14.012.727-3.812 1.337-6.408 1.695-9.038.507-3.727.786-7.485 1.234-11.222 1.244-10.366 3.33-20.709 3.578-31.097.274-11.48-.878-23.021-1.958-34.485-.277-2.937-2.623-5.68-4.481-9.45-5.325 9.83-4.13 18.823-4.838 28.463m274.491-414.493c-6.928 8.395-5.383 21.853 3.147 27.415 3.884-4.784 8.047-9.383 11.463-14.481.876-1.308-.23-4.366-1.126-6.294-.633-1.36-2.45-2.169-3.962-3.406 1.938-2.612 3.37-4.784 5.046-6.748 2.926-3.427 6.471-6.434 8.815-10.203 1.158-1.864 1.157-6.636.038-7.294-2.731-1.603-5.421-5.625-9.527-2.875-5.188 3.473-8.254 8.427-9.94 14.41-.861 3.057-2.253 5.965-3.954 9.476m402.31 29.517c2.639-.987 5.352-2.955 7.901-2.76 5.4.411 7.885-1.914 8.79-6.741.379-2.02.51-4.087.755-6.132-3.273-.307-5.294-5.125-9.842-1.805-3.253 2.375-7.764 4.107-11.75 4.183-10.081.192-19.316 3.543-28.81 6.045-2.184.576-4.592.452-6.668 1.249-3.657 1.403-7.382 2.93-10.499 5.2-.678.494 1.173 4.323 1.695 6.653.282 1.256.216 2.59.349 4.47 2.703-.266 5.662.272 7.508-.917 3.597-2.316 7.36-2.012 11.198-2.607 6.174-.958 12.184-2.955 18.275-4.466 3.385-.84 6.794-1.584 11.097-2.372m-30.996 27c7.583-1 15.148-2.192 22.757-2.925 4.293-.414 8.703.31 12.978-.186 4.096-.476 8.215-1.517 12.084-2.954 4.184-1.553 5.716-5.287 4.768-9.46-.877-3.86-4.252-4.627-7.76-4.486-1.457.059-2.945.241-4.346.63-3.736 1.038-7.376 2.911-11.155 3.22-14.38 1.171-28.8 1.856-42.532 2.683-1.185 2.034-1.738 3.41-2.653 4.474-2.844 3.313.94 5.21 1.72 7.657.293.921 2.483 1.678 3.84 1.732 3.113.126 6.246-.227 10.299-.385m61.044-75.925c-4.598-1.795-12.933 1.31-16.57 6.682-1.446 2.136-3.082 5.349-2.471 7.44 1.716 5.88 4.556 11.43 6.493 16.02 3.67.32 5.987.396 8.262.746 3.916.603 6.797-1.462 6.871-5.457.05-2.715-1.055-5.56-.557-8.138 1.12-5.794 1.035-11.306-2.028-17.293m-174.254-78.45c3.365-10.079 3.365-10.08 14.976-10.62 4.7-.22 7.08-2.5 6.882-7.024-.088-2.009-.841-3.989-1.302-6.022-1.925 0-3.428.138-4.897-.026-3.96-.442-8.547 1.782-11.331-3.56-1.026-1.969-8.93-.549-10.025 1.835-1.633 3.556-2.376 7.51-3.66 11.238-2.017 5.856-4.251 11.638-6.229 17.506-1.015 3.011-2.164 6.117-2.327 9.229-.112 2.141 1.019 5.988 2.2 6.24 3.173.68 7.588 1.008 9.79-.718 2.319-1.818 2.746-6.144 3.81-9.434.829-2.558 1.367-5.21 2.113-8.645M953.874 62.663c5.978-7.723 14.188-9.86 23.49-9.76 2.642.028 5.456-.78 7.868-1.9 1-.463 1.15-2.753 1.687-4.212-1.265-.288-2.518-.692-3.8-.846-6.627-.792-13.245-1.832-19.899-2.183-6.329-.334-12.792-.567-19.018.355-5.207.771-5.662 4.487-2.105 8.573 2.22 2.55 4.52 5.32 5.709 8.407 1.303 3.383 2.861 3.49 6.068 1.566M326.392 457.115c4.694-5.357 9.428-10.68 14.044-16.104.778-.915 1.711-2.455 1.443-3.38a162.019 162.019 0 0 0-4.996-14.624c-.4-1.008-2.114-1.496-3.95-2.701-2.507 5.066-4.832 9.454-6.866 13.972-1.839 4.084-3 8.505-5.105 12.431-3.264 6.083-2.61 13.116 2.91 17.027.741-2.019 1.462-3.983 2.52-6.62M138.365 39.998c-3.524-.544-7.032-1.363-10.575-1.563-4.802-.271-9.63-.068-14.448-.068 4.354 5.677 9.95 9.245 16.14 9.386 10.816.247 21.697 4.286 32.477.178 2.155-.82 3.975-2.518 5.95-3.81-2.04-1.373-3.923-3.453-6.158-3.953-3.328-.744-6.905-.456-10.375-.452-4.032.004-8.063.174-13.011.282m51.578 704.855c-2.215-1.056-4.403-2.173-6.65-3.155-5.19-2.266-7.196-.902-8.395 4.687-.655 3.05-1.912 6.186-3.684 8.737-4.38 6.307-3.296 9.957 4.585 12.769l5.97-6.881.52 1.505c2.23-.49 4.467-.944 6.686-1.475 5.456-1.304 6.344-3.268 3.962-8.358-1.074-2.296-1.969-4.676-2.994-7.829M135 924.163c-.678-7.998-1.348-15.997-2.055-23.992-.04-.457-.285-.978-.6-1.314-1.53-1.638-3.221-4.627-4.66-4.52-2.612.195-6.991 1.934-7.258 3.577-.8 4.928-.47 10.203.368 15.183.759 4.516 3.074 8.748 4.13 13.24 1.082 4.605 3.558 5.948 7.138 2.972 1.284-1.067 1.973-2.85 2.937-5.146m532.063-432.538c-3.886 6.331-4.895 13.395-4.954 20.615-.01 1.213 1.404 2.437 2.16 3.656 2.603-1.783 6.064-3.009 7.647-5.452 4.858-7.495 6.955-16.192 9.025-24.801.763-3.173-1.13-8.102-4.034-10.524-3.168 5.35-6.285 10.614-9.844 16.506M181.978 863.12c2.978-8.413-2.023-15.464-3.181-23.263-8.252 2.416-14.247 12.465-11.432 19.496 1.327 3.313 4.386 6.37 7.443 8.31 1.048.664 4.479-2.428 7.17-4.543m461.444-330.044c-1.474 4.919-3.182 9.783-4.329 14.776-.629 2.74.441 5.288 3.841 5.512 3.566.235 4.296-2.481 5.098-5.196.762-2.58 1.636-5.165 2.813-7.577 2.275-4.664 4.928-9.145 7.17-13.824 1.48-3.088 1.787-6.343-.94-10.71a5894.216 5894.216 0 0 1-13.653 17.02M281.36 459.174c-2.22 3.684-2.183 7.32.213 10.918 2.177 3.27 5.474 2.155 7.385.671 2.243-1.74 4.464-4.741 4.82-7.443.945-7.168.974-14.468 1.125-21.72.024-1.163-1.248-3.358-1.835-3.329-1.39.069-3.476.868-3.936 1.946-1.119 2.62-2.084 5.586-1.994 8.377.147 4.544-.837 8.113-5.778 10.58M512.574 320.95l-10.91 13.185c1.936 2.78 5.179 4.631 9.306 3.787 3.138-.642 6.232-1.735 9.185-3.001 4.523-1.94 6.446-5.942 4.914-9.496-2.059-4.775-7.285-6.963-12.495-4.475m166.765 146.884 2.269 3.317c3.035-5.093 5.744-9.456 8.217-13.948.49-.889.564-2.76-.014-3.349-2.361-2.4-1.387-4.425-.424-7.074.52-1.43-1.103-3.642-1.759-5.501-1.567.683-3.737.93-4.602 2.122-5.203 7.169-7.058 15.053-3.687 24.433M903.288 47.923l-8.031 1.501c1.508 1.951 2.238 3.942 3.454 4.305 10.387 3.095 19.633 1.423 26.364-8.416-2.386-.32-5.505-1.347-8.454-.986-4.264.522-8.405 2.051-13.333 3.596M763.003 492.195l1.53 3.948c6.741-4.875 8.547-13.384 5.524-22.802-.969-3.018-2.6-3.916-5.396-3.183-2.949.772-2.833 2.914-2.495 5.403.342 2.513.112 5.1.235 7.649.132 2.718.384 5.43.602 8.985M566.015 609.23c0-9.456-.444-9.78-12.652-9.012-.25 1.128-.11 2.978-.854 3.458-6.429 4.148-.41 7.675.773 11.11.431 1.252 3.955 2.432 5.69 2.028 3.33-.777 6.49-2.61 7.043-7.584m292.989-132.25c0 1.658-.017 3.315.004 4.972.04 3.172 2.165 3.591 4.422 2.808 4.464-1.55 9.01-11.985 7.268-16.404-1.071-2.716-3.145-3.552-5.168-1.24-2.432 2.777-4.357 5.999-6.526 9.864M631.33 315.878l-2.079-5.713c-4.735-.394-10.417-2.71-14.232 2.652-1.195 1.678-1.24 5.467-.134 7.251 3.655 5.897 9.442 3.277 14.33 2.671.914-2.185 1.76-4.206 2.115-6.86m-522.38 394.44c4.253-8.81 4.055-10.216-1.939-13.751-3.174 8.003-2.872 17.516 1.556 23.963 0-4.01 0-6.778.382-10.212M866 438.41c.001 1.821-.288 3.708.106 5.44.263 1.154 1.497 2.089 2.297 3.122.864-.972 2.024-1.816 2.513-2.95.557-1.29.41-2.866.75-4.273 1.34-5.524-.359-9.721-5.666-13.27v11.932M389.06 275.787c-.495 3.319-1.256 7.23 2.104 8.98 2.011 1.05 5.19-.144 8.004-.341-1.938-8.27-4.819-10.763-10.108-8.639m462.944 127.21c-.001 1.662-.053 3.326.007 4.985.125 3.48 3.07 5.545 5.96 3.837 1.33-.786 1.945-2.783 3.16-4.656l-6.98-9.434c-1.155 2.404-1.639 3.409-2.147 5.269m-472.011-83.764c-.033-.828-.05-2.379-.102-2.38-2.112-.047-5.027-.785-6.16.308-1.9 1.831-2.707 4.823-3.806 7.398-.068.16 1.275 1.27 2.042 1.38 4.51.65 7.016-1.603 8.026-6.706m-60.992 157.502c0 .823-.27 1.775.05 2.446.944 1.986 2.121 3.861 3.207 5.78 1.231-1.648 2.807-3.152 3.568-4.993.473-1.146.012-2.942-.574-4.191-.659-1.406-1.93-2.524-2.934-3.767-1.104 1.285-2.208 2.57-3.317 4.725m680.97-18.896v-19.479l-1.588.038c-3.907 7.73-2.403 15.488-.36 24.26.88-1.998 1.317-2.987 1.948-4.819m-176.39-105.768c-2.826 2.873-3.201 5.77-.155 8.746 4.253-2.783 7.005-9.956 5.75-16.125-1.836 2.741-3.343 4.99-5.595 7.38M82.026 653.202l5.29 6.625c2.99-10.093 1.37-14.308-3.877-13.151-.45 1.996-.873 3.863-1.413 6.526m913.853 349.392c-2.15.212-4.334.75-6.444.544-2.057-.201-4.04-1.164-6.055-1.793l-.818 1.092 10.291 7.278c1.21-2.445 2.17-4.383 3.026-7.121m-901.904 6.897-3.692-2.12-1 5.394h6.262c-.348-.92-.695-1.84-1.57-3.274m590.377-585.23c-.329 1.453-1.35 3.803-.853 4.189 1.356 1.049 3.355 1.267 5.098 1.814l.94-1.528c-1.502-1.378-3.005-2.756-5.185-4.476m161.99-36-.835 6.621h5.714c-1.58-2.363-2.897-4.334-4.88-6.621z"
    />
    <path
      fill="#FFF"
      d="M505.001 878c9.332 0 18.167.137 26.995-.045 6.698-.138 13.083-1.181 19.17-4.76 3.583-2.105 8.305-2.585 12.597-3.086 4.274-.498 8.663-.298 12.982-.06 5.298.29 9.796-1.087 14.194-4.212 2.465-1.752 5.992-2.437 9.123-2.736 6.898-.659 13.846-.819 20.777-1.086 6.374-.246 12.138 1.56 17.672 4.795 2.382 1.392 5.503 2.023 8.308 2.083 6.266.136 12.558-.437 18.09 3.463.614.434 1.57.707 2.3.6 8.286-1.22 15.79 1.707 23.402 4.195 1.67.546 3.547.43 5.26.88 3.375.888 6.697 1.974 10.05 2.95 3.513 1.023 6.988 2.6 10.565 2.892 6.632.544 13.522-1.02 19.02 4.74 1.272 1.333 4.33 1.36 6.555 1.317 8.098-.156 16.189-.74 24.288-.902 20.925-.417 41.856-.56 62.776-1.12 5.37-.144 10.035.99 14.24 4.171 2.985 2.26 5.905 3.548 9.877 2.103 2.088-.76 4.618-.734 6.281 2.33.687 1.266 4.537 2.105 6.102 1.36 4.53-2.154 9.362-4.51 12.75-8.054 7.732-8.087 15.916-8.103 26.352-5.95 11.964 2.47 20.562 8.928 29.216 16.448 7.218 6.273 13.79 12.55 18 21.644 2.658 5.741 8.415 10.3 13.442 14.622 5.097 4.381 9.85 9.58 17.141 10.864 1.073.189 2.374 3.14 2.358 4.802-.107 10.943-.577 21.882-.84 32.824-.034 1.437.525 2.878.66 4.33.337 3.652 1.771 7.659-3.181 9.675l-3.765-2.394-1.564.77c.94 6.416 1.88 12.832 2.825 19.248.047.319.253.644.21.942-1.366 9.5 6.327 11.398 12.402 14.137 3.746 1.689 4.976 3.491 4.478 7.593-.983 8.084 2.935 14.287 9.647 19.339-5.657 4.008-10.919 2.015-16.026 1.138-6.703-1.151-13.374-2.501-20.037-3.875-2.36-.486-4.62-1.478-6.985-1.92-7.666-1.43-15.327-3.414-23.055-3.774-4.244-.197-8.62 2.436-12.934 3.797-5.188 1.637-10.6 2.786-15.508 5.034-7.393 3.386-14.398.998-21.579-.186-4.493-.741-9.022-1.267-13.528-1.936-4.36-.647-5.605-3.167-3.1-6.8 4.756-6.902 9.508-14.867 18.115-16.355 6.759-1.17 14.345.262 21.151 2.081 9.176 2.453 18 2.47 27.125.452 4.345-.96 8.623-.658 12.692 2.052 7.065 4.705 9.986 4.424 13.376-.4 1.963-2.792.98-6.187-2.447-6.967-3.32-.756-6.81-1-10.23-1.028-4.344-.035-12.175-6.258-12.758-10.657-.323-2.44-.764-3.94-3.873-4.548-9.848-1.923-19.149-6.515-29.542-5.903-.976.058-2.01-.874-2.335-1.027l-7.034 4.923-1.741-1.745c.908-1.37 1.982-2.661 2.686-4.13 1.08-2.252 2.664-4.676 2.518-6.93-.072-1.115-3.466-2.709-5.462-2.883-7.398-.646-14.838-.817-22.265-1.115-4.393-.177-7.27 1.632-9.123 5.89-1.803 4.142-4.265 8.062-6.884 11.764-1.678 2.372-4.767 3.423-6.975 1.145-1.206-1.244-.77-4.085-1.049-6.209-.014-.11.229-.235.308-.377 2.008-3.6 5.595-7.064 2.848-11.529-2.684-4.363-7.652-4.25-12.1-4.647-2.81-.25-5.688-.295-8.488.009-4.585.497-6.609-1.8-7.534-5.887-1.323-5.838-5.148-8.006-10.821-6.816-9.276 1.945-16.984 5.787-20.382 16.652-4.59-2.652-8.455-5.104-12.523-7.154-2.514-1.267-5.283-2.487-8.03-2.743-7.782-.728-15.876 1.388-23.257-2.961-.998-.589-2.617-.143-3.948-.144-11.998-.005-23.998.127-35.994-.037-13.43-.184-26.86-.511-40.283-1a1926.577 1926.577 0 0 1-42.57-2.035c-3.528-.207-7.063-1.053-10.49-1.991-2.501-.685-4.523-1.78-3.927-5.45.282-1.739-1.833-3.868-2.935-5.96l5.722-1.225-.097-.84c-4.229-.486-8.448-1.237-12.69-1.398-6.33-.241-12.682-.25-19.012-.01-4.678.176-9.92 5.483-10.794 10.095-.25 1.316-.961 3.457-1.717 3.575-1.586.248-4.084-.032-4.894-1.096-2.981-3.912-7.258-4.422-11.438-5.792-3.633-1.191-6.764-3.212-10.993-3.019-4.097.188-5.035 1.572-5.042 5.36-.005 2.932.894 5.754-2.069 8.874-6.684 7.04-14.192 2.182-21.241 2.858-4.182.402-8.298-.154-11.372-3.769-.627-.737-2.06-1.033-3.145-1.095-7.253-.414-14.514-1.024-21.768-.974-13.258.09-26.513.832-39.77.853-11.272.018-22.625.097-33.789-1.186-6.766-.778-12.697 1.962-19.11 1.979-1.482.004-2.966.292-4.445.263-15.761-.306-31.523-.623-47.282-1.027-1.523-.039-3.031-.68-4.652-1.067l1.969-3.33c-.818-.262-1.241-.497-1.675-.518-1.33-.063-2.944.425-3.936-.163-1.717-1.017-3.05-2.682-4.544-4.076 1.068-.954 2.042-2.05 3.22-2.84 6.152-4.125 12.285-8.285 18.575-12.19 2.556-1.589 5.416-2.789 8.273-3.768 4.609-1.58 8.351-8.628 6.917-13.357-2.502-8.253-5.51-11.123-14.389-10.652-6.08.323-10.269-3.007-13.424-7.617-3.368-4.921-.148-10.505 6.05-10.305 9.892.318 19.28-.744 27.457-7.006 3.91-2.994 7.922-5.164 13.302-5.39 4.104-.173 8.013-3.136 12.177-4.207 4.683-1.205 9.581-1.542 14.334-2.512 3.896-.796 7.835-1.645 11.543-3.037 8.143-3.058 15.602-7.132 21.672-13.763 1.678-1.834 5.714-1.883 8.709-2.055 5.336-.306 10.704-.05 16.058-.086 6.233-.04 12.218.22 17.978 3.556 3.495 2.024 7.921 2.78 12.031 3.306 4.262.544 8.648.121 13.48.121m245.34 79.167c-3.674 6.056.178 14.445 5.915 16.386 4.852 1.641 10.476 1.435 14.944 3.673 6.226 3.119 12.178 2.39 19.408 1.273-.956-1.83-1.41-3.807-2.647-4.873-4.694-4.046-9.593-7.862-14.514-11.636a170.424 170.424 0 0 0-10.31-7.34c-4.585-3.004-8.697-2.116-12.796 2.517m-405.77 15.905 3.538-1.862-.334-1.67c-2.421.158-5-.118-7.193.673-.982.355-1.193 2.848-2.24 5.69 2.989-1.251 4.295-1.798 6.23-2.831zM287.956 391.879c-2.16-5.204.251-8.78 2.98-12.41 1.173-1.562 1.79-3.543 3.09-6.219-5.46 2.476-7.71 6.11-8.116 10.577-.21 2.317-1.311 4.563-2.08 6.817-1.585 4.64-4.137 9.177-4.578 13.916-.463 4.98-1.276 9.104-4.943 12.778-3.989 3.998-3.387 10.27-2.2 15.641 1.818 8.228 1.96 16.831 2.711 25.284.062.696-.525 1.56-1.018 2.18-4.75 5.978-5.52 13.066-5.835 20.316-.055 1.258-.155 2.853-.91 3.668-1.326 1.433-3.206 3.32-4.794 3.266-1.48-.05-4.066-2.34-4.114-3.715-.214-6.08-1.01-12.641.896-18.17 2.566-7.44 2.237-14.589 1.333-21.868-1.074-8.653-.822-16.777 2.841-25.029 1.89-4.258 1.642-9.627 1.677-14.5.034-4.951.735-9.28 4.14-13.236 1.407-1.636 1.89-4.534 1.871-6.85-.083-10.24-.126-20.356 6.36-29.196 1.077-1.468 1.265-3.638 1.693-5.522 1.048-4.616 3.083-8.287 6.432-12.018 4.22-4.703 6.52-11.143 9.567-16.877.908-1.708 1.061-4.127 2.384-5.25 5.28-4.488 8.292-9.897 8.567-16.868.036-.92.71-2.164 1.475-2.652 9.055-5.785 12.347-14.635 13.646-24.72 1.498-11.625 3.116-23.238 4.913-34.821.77-4.963-2.341-10.673-8.031-12.257-4.713-1.311-6.336-3.822-6.006-8.546.235-3.364-1.505-7.195-.436-10.11 3.324-9.067 6.984-18.202 16.842-22.601 1.747-.78 3.14-2.325 4.755-3.43 3.718-2.544 7.497-5 11.202-7.563 1.879-1.3 3.97-2.483 5.41-4.188 3.836-4.545 8.61-6.99 14.273-8.796 14.367-4.58 27.435-12.002 40.41-19.606 4.107-2.408 8.819-4.155 13.48-5.169 8.429-1.834 9.492-2.05 10.998-10.445.843-4.703 3.276-6.963 7.54-7.616 4.18-.64 7.493.457 9.898 4.568 3.652 6.244 4.6 6.188 8.496-.166 2.718-4.434 6.02-5.192 10.799-3.709 3.22 1 6.863 1.473 10.197 1.1 6.08-.677 8.215 4.92 12.513 6.97 3.452 1.647 6.873 3.4 10.14 5.382 4.16 2.525 8.14 5.349 12.225 8 1.067.692 2.184 1.576 3.374 1.766 8.557 1.363 13.466 7.828 18.843 13.499 3.958 4.174 2.47 8.204-3.081 9.533-3.913.936-7.949 1.62-11.626 3.148-1.473.612-2.88 3.118-3.038 4.877-1.077 12.003 4.789 19.44 18.216 19.034 3.385-.102 6.887.408 10.163 1.283 1.688.451 3.846 2.065 4.313 3.603 1.26 4.149 4.529 5.347 7.817 7.06 3.691 1.921 6.858 4.935 10.642 6.576 4.518 1.96 9.375 3.341 14.218 4.307 8.376 1.671 12.798 6.955 15.733 14.552.775 2.007 3.875 3.569 6.237 4.421 6.359 2.295 13.432 3.144 19.192 6.393 4.653 2.624 9.718 3.264 14.03 5.219 16.994 7.705 34.542 3.196 51.76 4.436 4.772.343 9.285-.058 13.312 3.771 2.121 2.016 5.868 2.826 8.99 3.158 3.878.414 6.46 2.086 8.267 5.29 2.18 3.862 5.286 5.735 9.65 7.259 3.608 1.26 6.18 5.71 8.997 8.933 1.589 1.819 3.111 3.871 3.985 6.086.781 1.983.708 4.328.853 6.523.05.771-.37 1.574-.575 2.361-.885 3.387-2.83 7.069 1.194 9.655 4.927 3.166 5.777-2.663 8.547-4.27.467-.27.621-1.08.94-1.678 4.984 1.621 5.681 6.175 7.408 10.093 1.66 3.768 3.137 7.864 5.751 10.91 4.245 4.943 8.348 9.605 8.348 16.626 0 1.516.717 3.265 1.645 4.5 2.586 3.445 1.593 4.968-2.887 5.13l2.078 16.385c-6.219-2.52-9.815-5.141-8.948-11.078.679-4.652 1.22-9.327 2.025-13.957.573-3.292.534-6.53-3.163-7.463-3.486-.88-7.455-.885-8.433 3.987a79.72 79.72 0 0 0-1.383 10.673c-.368 5.879-1.528 7.14-7.362 7.18-11.375.078-13.81-2.258-13.646-13.846.177-12.43.839-24.857.86-37.286.01-4.826-.551-10.088-4.945-13.209-1.934-1.373-4.86-1.484-7.381-1.852-2.09-.306-4.264.009-6.368-.233-3.56-.408-7.09-1.067-10.64-1.567-5.174-.729-10.471-.961-12.743-7.176-.484-1.324-2.87-1.874-4.23-2.968-13.365-10.752-29.184-12.231-45.393-11.719-3.03.096-5.967 2.176-9.017 3.109-1.668.51-3.764 1.231-5.185.659-5.502-2.215-10.378-5.432-13.434-10.807-.557-.98-1.041-2.237-1.92-2.763-5.984-3.585-11.706-8.326-18.219-10.099-5.977-1.627-12.84.076-19.314.157-2.516.03-5.09-.11-7.542-.628-3.298-.695-6.544-1.715-9.735-2.818-2.124-.734-4.508-1.43-6.086-2.89-4.168-3.854-9.302-4.228-14.45-5.124-8.776-1.527-17.099-1.13-25.371 2.792-2.205 1.045-5.695-.601-8.591-1.04-1.284-.195-2.551-.503-3.837-.683-3.34-.467-6.918-.035-7.939 3.347-.658 2.179.962 5.045 1.77 8.493-6.564 4.615-14.257 1.808-20.37.671-5.913 5.197-10.95 9.975-16.394 14.234-2.184 1.71-5.266 2.267-7.932 3.367-5.36 2.212-10.722 4.422-16.072 6.662-3.641 1.524-6.962 2.325-10.39-.97-3.59-3.449-8.323-3.486-13.04-2.937-1.644.191-3.34.262-4.983.093-5.5-.568-10.158 1.393-14.81 4.093-2.011 1.167-5.103 2.032-7.121 1.339-6.349-2.18-16.38 4.034-18.201 11.038-1.1 4.228-2.397 8.468-2.847 12.782-.364 3.486-2.164 5.284-4.756 7.075-4.744 3.278-5.671 7.648-3.402 13.008.931 2.201 1.2 4.674 2.025 6.93 1.482 4.048 3.351 7.962 4.687 12.053 1.038 3.18 1.564 6.534 2.216 9.83.52 2.625.886 5.28 1.324 7.948-3.637 1.113-6.735-1.757-7.368-6.1-.477-3.27-1.512-6.654-3.172-9.472-.833-1.414-3.731-2.534-5.495-2.297-4.586.617-9.54 7.063-9.135 11.9.52 6.218-1.401 10.313-7.41 12.89-2.354 1.01-3.822 4.057-5.731 6.142-2.013 2.199-4.016 4.41-6.117 6.522-8.34 8.386-10.937 19.07-5.21 29.028 3.19 5.549 1.817 10.43 1.122 15.546-.667 4.909-2.435 9.67-3.746 14.489-.248.913-.434 1.928-.968 2.665-3.618 4.995-13.504 6.077-18.673 2.645-3.343-2.22-7.28-3.545-11.514-5.536.287-1.844.604-3.89.926-5.936.322-2.05 1.535-4.51.81-6.075-2.347-5.075-.745-8.815 2.368-12.834 1.844-2.38 2.686-5.536 4.01-8.763z"
    />
    <path
      fill="#FFF"
      d="M532.738 430.238c.402-1.265.863-2.527 1.765-3.189 6.015-4.411 12.308-2.55 18.527-.515 2.754.901 5.662 1.698 8.057 3.233 2.784 1.784 2.483 3.95-.77 5.23-1.2.472-2.755.45-3.638 1.23-1.422 1.258-3.253 2.946-3.346 4.542-.08 1.385 1.71 3.502 3.198 4.243 5.589 2.784 10.405 7.577 17.369 7.088.636-.045 1.407.757 1.998 1.294 4.07 3.706 7.997 7.577 12.186 11.142 5.234 4.454 10.476 4.368 16.931 1.645 3.766-1.59 8.403-1 12.354-2.29 7.417-2.424 13.51.34 19.302 4.187 1.601 1.063 2.997 3.491 3.192 5.424.711 7.048-2.711 12.59-8.364 16.196-8.262 5.27-10.28 13.247-8.171 21.918 1.85 7.612-.064 13.838-7.252 16.637-15.334 5.972-26.65 17.388-39.113 27.296-3.085 2.454-6.73 4.42-9.195 7.379-2.515 3.02-4.118 6.89-5.699 10.568-1.38 3.211-3.043 5.227-6.488 7-5.911 3.041-10.96 7.76-16.367 11.78-1.569 1.166-2.97 2.735-4.72 3.441-3.931 1.584-8.033 2.743-12.065 4.076-1.135-9.027 1.1-12.893 7.651-15.372 4.894-1.852 6.51-6.727 6.296-10.705-.31-5.756-2.543-11.468-4.468-17.021-.348-1.004-3.131-1.409-4.85-1.63-2.13-.273-4.341.12-6.482-.108-3.89-.413-7.615-.94-9.023-5.74-1.365-4.658-5.064-6.276-9.792-6.254-8.335.039-14.806-3.227-18.826-10.893-.964-1.84-2.923-3.128-4.164-4.858-1.772-2.468-3.276-5.126-4.944-7.67-1.513-2.308-3.083-4.578-4.643-6.853-2.185-3.185-4.189-6.521-6.651-9.475-1.446-1.735-3.45-3.267-5.517-4.17-5.963-2.606-8.152-6.464-5.86-12.334 1.992-5.105 4.298-10.137 7.012-14.888 1.224-2.141 3.553-3.93 5.778-5.162 4.386-2.43 6.852-5.793 5.984-10.781-.874-5.024-1.787-10.163-3.7-14.834-1.02-2.49-4.195-4.095-6.658-6.337 9.602-4.156 18.028-9.417 28.258-7.676 3.328.566 6.963.839 9.81 2.415 6.417 3.554 13.194 4.863 20.29 4.468 5.167-.287 10.29-1.359 15.432-2.08a6.674 6.674 0 0 0-.624-1.597zM118.154 130.322c-1.8-12.053 3.948-21.099 9.98-30.137 1.178-1.764 1.748-4.242 1.788-6.406.253-13.37 8.887-20.098 21.95-18.03 6.848 1.083 13.999.206 21.01.348 1.76.036 3.508.582 5.26.9 13.02 2.363 25.73.56 38.535-2.11 5.805-1.21 9.893-3.68 12.432-8.644 7.922 6.425 15.582 1.004 23.43.449 2.194 3.883 1.552 5.384-4.168 7.265-4.997 1.642-10.415 2.307-13.767 7.104-.371.532-1.221.855-1.366 1.402-2.38 9.017-10.904 11.295-17.501 15.358-2.736 1.684-7.017 1.122-10.592 1.098-2.982-.02-4.849.697-6.165 3.638-1.514 3.382-3.989 6.329-5.553 9.694-1.204 2.588-2.3 5.53-2.307 8.317-.024 9.085 1.633 18.33.419 27.208-1.054 7.71 1.067 13.58 4.483 19.86 1.401 2.578 1.23 5.974 2.016 8.933.69 2.596 1.234 5.432 2.691 7.588 4.45 6.586 6.407 13.742 6.282 21.598-.096 5.983-7.441 13.843-13.37 14.248-5.31.364-7.875-3.498-10.598-6.97-2.002-2.552-3.467-5.547-5.593-7.976-3.95-4.516-7.356-3.943-10.545 1.05-1.21 1.896-3.503 4.776-4.826 4.54-2.08-.373-4.175-2.723-5.517-4.734-2.607-3.91-4.714-4.539-7.768-1.11-2.483 2.788-4.84 5.798-6.659 9.042-2.156 3.845-8.32 6.45-12.935 4.842-4.972-1.731-5.626-3.927-4.657-10.052.483-3.06-.452-6.405-1.113-9.545-.174-.829-1.637-1.81-2.632-1.976-7.86-1.316-15.624 5.588-15.838 13.704-.12 4.6-.52 9.203-1.022 13.78-.344 3.143-7.655 9.468-10.843 9.347-3.096-.116-6.335-.2-9.22-1.167-3.491-1.171-4.21-4.46-4.258-7.938-.111-8.063-.93-16.159-.422-24.176.444-7.003.198-14.684 6.578-19.792 1.112-.89 3.095-1.284 4.54-1.053 3.9.622 5.931-.188 7.903-4.273 4.034-8.36 4.67-17.422 7.084-26.09 1.578-5.665 2.595-6.325 8.672-8.174 3.156 4.467 6.13 9.064 6.025 14.966-.248 13.85-.124 11.336 12.398 16.736.711.307 1.497.441 2.246.66 5.365-7.508 4.62-15.003-1.599-21.288-2.183-2.206-4.245-4.841-2.377-8.744 2.549-5.326 1.211-7.478-4.998-7.47-4.235.006-6.504-1.43-7.513-5.82m38.722-11.775c-2.072-5.468-4.377-6.148-7.657-2.257-3.87 4.592-2.95 17.513 1.54 21.618 5.03-1.807 6.931-5.414 6.263-10.624a37.911 37.911 0 0 1-.146-8.737m-11.484-24.652c-1.443-.618-3.837-2.086-4.17-1.712-1.708 1.911-3.59 4.169-4.023 6.557-.346 1.917.758 5.402 2.173 6.025 2.09.922 5.493.709 7.478-.468 2.263-1.342 2.128-4.284.415-6.722-.634-.902-.914-2.052-1.873-3.68zM154.374 492.155c.896-5.604 3.407-9.548 7.152-13.588 5.472-5.904 9.964-12.88 13.883-19.95 1.085-1.957-.587-6.436-2.342-8.722-2.174-2.832-2.475-5.015-1.067-8.02 4.967-10.602 4.965-13.264-3.562-20.666-6.82-5.92-6.87-13.114-6.343-20.752.257-3.73 3.563-4.646 6.447-4.356 9.512.957 13.728-5.142 17.505-12.23 3.393-6.369 7.17-12.537 10.413-18.978 1.262-2.506 1.526-5.515 2.077-7.645.784 9.136 1.736 18.922 2.434 28.726.796 11.18 1.137 22.396 2.181 33.55.283 3.019 2.438 5.849 3.651 8.799 1.445 3.513 3.755 7 3.993 10.61.455 6.91-.133 13.57 5.438 19.302 1.922 1.978 1.462 6.508 1.61 9.892.113 2.57-.845 5.18-.793 7.762.303 14.838-.874 29.47-5.278 43.738-.521 1.69-.296 3.61-.821 5.297-1.088 3.488-2.43 6.898-3.702 10.327-1.058 2.85-2.895 5.623-3.121 8.53-.936 12.01-1.521 24.052-1.973 36.093-.268 7.168-.049 14.354-.049 21.004l-7.551-2.368-.627 1.157c.613.864 1.058 1.953 1.865 2.557 6.247 4.678 6.813 10.47 3.198 16.877-2.69 4.767-3.375 9.793-3.023 15.112.058.875-.277 1.776-1.225 2.755-.246-.786-.746-1.587-.7-2.355.468-7.763-.608-15.237-3.388-22.545-.69-1.816-.449-4.203-.01-6.189.99-4.468-.416-7.835-3.584-10.946-1.383-1.358-2.266-3.35-3.013-5.2-1.25-3.097-2.323-6.279-3.264-9.485-1.676-5.712-3.815-11.384-4.608-17.23-.766-5.638-.585-11.182-2.747-16.821-1.924-5.02-1.377-10.987-2.959-16.978-.824 3.205-2.57 6.5-2.267 9.594.53 5.403-3.009 6.288-7.357 4.204-1.938-.928-4.097-1.396-6.156-2.073l-1.555 1.14c-.08-1.599-.378-3.223-.195-4.79.41-3.501.827-6.619-1.648-9.96-2.663-3.597-2.636-8.085-2.598-12.802.066-7.985 1.284-15.28 5.679-22.377zM135.913 672.009c3.083 1.662 5.773 3.326 8.523 5.027 2.402-5.219-.863-12.838-8.236-18.586l-1.889 7.84-3.634-4.199c.497-3.342 1.083-6.106 1.288-8.899.445-6.079.784-12.169.99-18.26.1-2.928.287-5.548-4.22-6.242-2.479-.38-6.483-3.947-6.355-5.846.502-7.474-5.883-12.188-6.558-18.99-.069-.693-1.598-1.62-2.56-1.783-5.847-.987-9.838 3.557-8.519 9.404 1.307 5.79-.878 10.49-4.879 14.534-.779.788-1.627 1.508-2.545 2.353-.744-2.211-1.459-4.588-2.343-6.9-1.205-3.152-4.262-3.722-5.8-.773-2.25 4.313-3.768 9.007-5.786 14.003-2.933.055-4.365-3.532-4.023-8.725.518-7.863 7.122-11.274 10.997-16.575 4.607-6.304 8.384-12.426 8.891-20.6.245-3.954 3.306-7.672 4.723-11.628 2.199-6.137-4.807-16.6-11.295-17.154-.661-.057-1.334.027-1.998-.016-7.36-.476-9.569-2.527-9.61-9.948-.027-5.07-1.738-9.318-3.642-13.937-1.623-3.94-.53-9.168-.038-13.761.42-3.91 2.142-6.884 6.315-8.94 4.312-2.123 8.33-5.563 11.362-9.325 2.232-2.768 3.65-6.969 3.703-10.556.115-7.834 4.951-13.094 7.983-18.687 2.71 5.997 5.848 11.872 7.99 18.09 1.242 3.606.582 7.825 1.37 11.645.385 1.862 1.772 4.426 3.315 4.984 6.973 2.523 12.454 6.835 15.841 13.206 2.8 5.269 4.833 11.018 6.576 16.746.909 2.985.312 6.4.665 9.59.296 2.673.633 5.432 1.563 7.926 2.635 7.07 3.64 13.964 3.292 21.793-.81 18.202.29 36.488.601 54.74.048 2.83-.05 5.665.045 8.493.168 5 3.3 9.189 8.33 9.841 5.72.742 6.972 3.72 6.777 8.944-.207 5.557-.055 11.28 1.095 16.683.874 4.107 4.542 7.684 5.14 11.764.532 3.63-.616 8.113-2.51 11.35-2.836 4.847-8.688 4.454-11.967.002-2.323-3.154-5.199-6.01-6.949-9.446-1.715-3.368-2.317-7.301-4.703-11.494-.842 2.643-1.587 5.322-2.565 7.912-.567 1.503-1.222 3.163-2.334 4.237-4.76 4.595-6.638 9.786-3.86 16.085 2.217 5.03 3.049 9.988-1.068 15.321l-2.215-6.3-4.556 3.309c0-1.464-.366-2.967.057-3.238 3.438-2.202 2.029-5.119 1.82-8.163-.418-6.099-.285-12.241-.223-18.365.025-2.444-.001-5.054.817-7.288 1.482-4.045 2.066-8.75 6.811-11.198M129 610.675c.483 2.47-1.328 5.81 1.526 7.146 1.608-3.901 3.397-7.125 4.179-10.577.434-1.916-.436-4.41-1.413-6.28-.88-1.686-2.734-2.85-4.109-4.291-1.913-2.007-3.705-1.553-4.154.879-.344 1.857.375 4.027 1.024 5.92.752 2.187 1.945 4.223 2.947 7.203m-9.008-21.396.906-8.687c-8.68 1.879-11.55 8.307-7.037 15.801.457.76 1.741 1.579 2.493 1.457.849-.137 1.88-1.177 2.211-2.058.678-1.799.94-3.754 1.427-6.513z"
    />
    <path
      fill="#FAFAFA"
      d="M380.024 399.004c-1.245-.989-2.37-2.564-3.759-2.848-3.348-.685-6.825-1.06-10.242-1.009-3.566.053-7.244.327-10.643 1.304-2.516.723-3.488.359-4.572-1.918-3.107-6.528.893-13.487 8.015-13.534 8.124-.055 16.248-.013 24.618-.013-3.031-3.746-5.885-7.195-8.653-10.711-3.016-3.833-6.79-6.767-8.627-11.933-1.25-3.516-.54-5.777 1.108-7.419 1.367-1.363 4.513-1.735 6.639-1.33 2.35.449 4.436 2.282 7.078 3.758 0-6.304-.03-12.37.009-18.434.038-5.878 6.191-12.466 11.415-15.177 5.042-2.618 9.98-3.128 15.18-2.651 3.407.312 6.723 1.607 11.18 2.742-4.052-5.35-7.534-10.076-11.157-14.694-3.78-4.817-8.693-8.771-9.738-15.468-.596-3.819 2.894-4.097 4.346-6.01.56-.74 4.075-.353 5.232.668 4.54 4.007 8.766 8.388 12.94 12.79 3.794 4 7.37 8.208 12.198 13.62-4.036-15.016-.608-27.525 11.14-34.291 11.824-6.812 24.9-5.926 35.236 5.838-.468-5.718 2.17-11.975-3.87-15.871l4.898-6.3-.713-1.238c2.908.204 5.814.467 8.725.58 1.04.04 2.269.015 3.111-.485 7.634-4.534 15.995-4.168 24.102-2.74 3.732.657 7.165 3.708 10.416 6.104 1.602 1.182 2.482 3.344 4.254 5.866 1.678-2.982 2.658-5.968 4.623-7.999 7.802-8.06 17.43-10.422 28.057-7.126 6.228 1.931 11.334 5.708 13.473 12.42.918 2.881 2.21 5.662 2.918 8.589 1.172 4.843-1.063 8.304-4.983 11.006-.631.435-1.033 1.684-.998 2.534.37 9.017.077 8.412-8.2 12.84-3.489 1.867-6.546 2.393-10.114 2.57-9.41.467-16.314-3.834-21.64-11.195-1.893-2.614-2.386-2.354-4.166.35-3.335 5.065-6.545 10.159-13.691 11.021-4.844.585-9.512 2.634-13.945 3.936l1.093 15.01c-2.766 1.083-5.258 1.73-7.408 2.972-4.04 2.333-5.127-.593-5.816-3.283-1.828-7.13-3.31-14.35-5.278-23.077-4.782 23.232-20.342 26.786-39.918 23.994 6.106 2.58 4.423 7.846 3.77 11.997-.317 2.016-3.67 4.229-6.09 5.038-2.127.712-4.868-.406-7.249-.705v2.382h13.437l9.245-8.144-7.327-2.544c3.16-3.928 11.684-6.252 15.594-4.67 2.49 1.009 3.203 4.886.826 6.12-3.211 1.668-4.335 4.192-2.348 6.651 1.188 1.47 4.41 1.887 6.66 1.756 2.662-.154 5.26-1.406 6.592-1.8 2.726 2.182 5.055 4.016 7.35 5.89 3.14 2.564 3.09 4.816-.648 6.242-3.122 1.192-6.632 2-9.95 1.935-14.637-.29-24.899 5.775-31.048 19.299-1.056 2.32-4.839 3.461-7.447 5.002-4.228 2.498-6.548 7.249-4.762 11.678 4.318 10.706.245 20.54-2.549 30.567-.775 2.78-1.642 5.605-1.858 8.456-.32 4.203-3.97 10.966-7.81 11.796-2.518.544-5.565-.277-8.107-1.214-2.928-1.078-5.56-2.958-9.331-5.05.443-1.046 1.367-2.92 2.04-4.88 1.407-4.1 4.122-8.398 3.702-12.337-.801-7.522 4.113-11.423 7.884-16.098 4.907-6.083 4.81-13.04 4.33-20.136-.034-.51-1.52-.923-2.33-1.38l.643-1.627c2.015 0 4.031.022 6.046-.004 6.932-.091 9.363-2.426 11.807-11.218.338-1.215.735-2.446 1.325-3.552 3.81-7.141 2.876-10.261-4.596-15.034-2.57 7.91-8.431 12.768-15.184 17.061-7.78 4.946-15.85 2.544-24.619 1.512 4.788 5.426 9.444 10.154 13.343 15.44 1.255 1.703 1.486 5.367.515 7.29-3.716 7.359-9.77 9.874-18.051 7.777-1.998-.506-4.664 1.625-7.378 2.634-.356.089-.3.112-.3.112m102.842-124.276 9.856 45.532 5.558-.88c-.824-3.974-1.558-7.51-2.29-11.047-.716-3.465-1.43-6.93-2.23-10.814 12.474 6.423 23.833 4.341 30.194-5.096 5.74-8.514 3.673-22.319-4.374-29.067-4.154-3.485-8.978-4.777-14.364-4.545-7.965.344-13.555 4.485-17.705 11.332l-1.815-7.044-5.092 1.277c.742 3.401 1.41 6.465 2.262 10.352m-67.496 79.307c-7.025 4.554-12.468 4.655-18.193.229l21.385-26.749c-8.033-8.587-20.343-8.925-28.591-.989-8.56 8.235-8.708 20.847-.346 29.392 8.935 9.131 21.78 9.378 30.685.588 5.688-5.613 9.253-16.296 6.185-19.348l-3.837.284c.169 6.523-1.84 11.954-7.288 16.593m117.778-71.252c5.588 16.108 25.285 21.645 36.397 9.905L567 289.403c-7.879 4.983-14.551 5.65-20.855 2.106-5.13-2.885-7.78-7.245-7.864-13.519l34.53 2.302c2.034-9.81-2.436-18.813-10.917-22.593-8.891-3.963-19.112-1.568-24.748 5.782-4.23 5.514-5.074 11.777-3.998 19.302m-94.829 26.23c7.929 11.727 20.542 14.27 31.41 6.336 10.07-7.352 11.576-20.521 3.524-30.82-6.688-8.553-18.122-10.368-27.75-4.403-9.999 6.195-12.792 16.666-7.184 28.887m-56.267 54.438-10.594-11.726-2.361 4.857 25.836 29.023c-12.089 0-23.36.163-34.623-.087-3.978-.088-5.76 1.324-6.04 5.567 14.168 0 28.156.08 42.14-.116 1.52-.021 3.742-1.314 4.322-2.608.571-1.275.001-3.75-.988-4.921-5.586-6.618-11.448-13.002-17.692-19.989m33.614-64.624-10.119-11.955-4.233 3.8 38.187 45.171c1.466-1.248 2.7-2.296 4.318-3.674a98009.05 98009.05 0 0 1-28.153-33.342m131.375-12.306c8.317 4.907 9.742 4.8 17.82-2.471l-21.212-1.356-.325 1.3c1.038.689 2.077 1.377 3.717 2.527M415.24 347.333c5.824-1.996 1.25-6.545 2.312-9.908-4.066 3.973-7.583 8.263-10.985 12.642-.32.412-.156 1.808.196 2.002.665.367 1.844.543 2.43.183 2.017-1.243 3.87-2.751 6.047-4.919m9.503-14.347 3.132-.802-2.794-6.274-3.567 7.076h3.23m-42.766 23.42 1.89-.172-2.104-2.616-.757.51c.133.578.265 1.157.97 2.277z"
    />
    <path
      fill="#F8F8F8"
      d="M600.004 625.413c.845-1.43 2.316-2.427 2.349-3.468.05-1.608-.401-4.09-1.491-4.715-3.276-1.878-7.104-2.773-10.452-4.55-3.63-1.926-7.178-4.146-10.367-6.725-3.443-2.785-.657-6.727.726-8.458 1.402-1.753 5.849-2.491 8.317-1.689 5.777 1.88 11.156 4.974 16.728 7.507 1.006.457 2.165.58 4.168 1.09 0-3.222.756-6.226-.162-8.576-1.754-4.49-1.647-8.488 1.388-13.319 2.63.549 5.784 1.546 8.979 1.7 1.208.06 3.512-1.74 3.606-2.837.518-6.105 5.803-7.99 8.964-11.801 3.956-4.772 9.275-2.567 13.384-5.256 1.69-1.106 5.412.895 8.946 1.637-1.606-2.102-3.06-3.605-4.042-5.37-2.27-4.08-.029-6.745 2.847-9.604 2.717-2.7 5.15-5.895 6.926-9.282 2.136-4.074 4.293-7.37 9.05-9.046 2.013-.71 5.165-2.981 4.115-6.698-2.121-7.51 3.737-11.551 7.34-16.522.4-.55 1.873-.419 2.85-.433 3.33-.047 6.663-.018 10.38-.018-4.07-3.253-7.07-6.637-6.647-12.111.359-4.638.4-9.354.002-13.986-.688-8.019 3.803-13.91 7.812-19.92 2-2.998 12.066-2.458 13.21.826.806 2.313.009 6.496-1.706 8.129-4.922 4.685-6.853 10.301-6.95 16.637-.032 2.135 1.088 5.085 2.702 6.257 2.271 1.649 4.278.517 5.534-2.642 1.633-4.11 4.142-7.904 6.527-11.674 1.888-2.984 3.976-5.885 6.295-8.544 5.493-6.3 12.821-4.11 19.509-3.441 4.44.444 10.92 9.24 11.156 13.911.47 9.268-.1 18.018-6.395 25.979-2.737 3.462-4.941 6.138-9.325 6.626-3.272.363-3.968-1.18-4.447-4.289-.936-6.074 2.88-10.203 4.953-15.079 1.602-3.769 2.656-7.638-.592-11.144-.91-.983-2.553-2.585-3.152-2.318-1.855.828-3.85 2.106-4.932 3.768-4.546 6.99-8.365 14.491-13.324 21.155-2.107 2.833-6.363 4.067-9.347 5.85 4.96 4.307 8.287 4.663 14.982.93 4.776-2.662 9.236-.106 9.578 5.58.188 3.126-.776 6.397 3.494 8.142.88.36 1.143 5.105.075 6.826-3.336 5.374-4.462 5.437-10.231 4.001l-11.384 10.794c-6.652-5.038-3.058-11.327-3.922-17.678-3.443-1.638-7.557-3.6-11.676-5.551-.733-.348-1.487-.65-2.231-.974-2.159-.94-5.964-3.006-6.215-2.64-1.971 2.88-3.262 6.224-5.367 10.714 7.808-1.702 9.775 3.346 10.924 7.234 1.149 3.886 2.169 8.66-1.697 12.564-2.818 2.847-5.07 6.275-7.408 9.562-.778 1.095-1.043 2.555-1.543 3.848l1.357 1.392c2.275-1.808 4.53-3.64 6.83-5.417 3.688-2.851 4.115-6.668 4.35-11.054.082-1.52 4.208-4.103 6.251-3.895 2.278.233 5.707 2.788 6.15 4.863 1.398 6.549-1.582 11.92-5.855 17.096-2.23 2.7-4.675 5.063-6.92 7.63-3.626 4.147-7.408 4.182-12.045 3.189-3.014-.647-6.225-.443-9.193-1.213-1.694-.439-3.079-2.069-4.97-2.866 4.373 5.544 5.616 11.248 2.894 17.86-1.449 3.52.058 7.975-3.632 10.935-3.151 2.527-5.653 6.014-9.058 8.038-4.933 2.932-10.175 6.243-16.438 3.146-3.433-1.698-6.638-3.956-5.327-8.204 1.141-3.696 3.891-5.957 8.47-5.042 3.928.785 11.789-4.392 12.29-7.634 1.293-8.357-1.86-13.878-8.655-15.154-8.612-1.617-12.333.424-14.2 8.853-.849 3.83-4.436 4.26-6.15 6.763-.782 1.144-1.989 2.89-1.615 3.778 1.612 3.831 3.832 7.401 5.647 11.155 1.405 2.905 2.576 5.925 3.782 8.922a1971.97 1971.97 0 0 1 6.405 16.156c1.245 3.171 2.06 6.697-1.813 8.297-8.65 3.574-8.93 3.265-11.43-2.592-3.137-7.347-6.438-14.625-10.16-23.046-1.741 2.363-3.165 3.829-4.036 5.57-2.051 4.101-4.04 8.257-5.66 12.54-1 2.643-7.979 8.127-10.637 7.559-.836-.179-2.229-1.103-2.178-1.552.447-3.979-2.253-8.325 1.583-12 .958-.917.786-3.013 1.152-4.982m119.203-143.639c-2.69 4.962-5.192 10.038-8.138 14.843-1.887 3.078-5.314 4.878-8.59 3.248-2.643-1.315-4.86-4.088-6.442-6.711-.986-1.636-.732-4.225-.526-6.336.79-8.107 4.39-14.862 10.725-20.281l-4.142-3c-8.88 7.816-12.574 17.61-11.618 28.992.638 7.585 5.142 12.332 11.32 13.471 6.641 1.224 11.21-1.18 15.336-8.424 2.546-4.47 4.684-9.172 7.19-13.667 2.985-5.357 6.434-7.203 10.738-6.076 4.713 1.235 7.088 5.057 7.07 11.202-.02 6.62-2.42 12.31-6.543 17.378-.479.589-.753 1.344-1.115 2.01.738.592 1.228 1.05 1.78 1.41.648.423 1.351.761 2.21 1.235 6.898-7.907 9.74-16.816 8.474-26.94-.808-6.464-5.4-11.169-11.444-12.229-6.963-1.221-11.212 1.263-16.285 9.875M611.94 588.527c.735 2.012 1.586 3.99 2.173 6.045.608 2.129 1.77 4.55 1.252 6.452-.985 3.614-2.995 6.948-4.674 10.606-6.764-3.584-13.335-6.794-19.615-10.5-3.603-2.126-6.508-2.11-9.788 1.094l27.016 14.647-9.032 21.716 2.221 1.22c9.242-8.858 10.808-22.411 17.834-33.21l15.765 36.324 5.149-2.354-23.456-54.303c-1.607.644-2.932 1.175-4.845 2.263m63.141-54.336c-9.946 3.695-14.32 11.077-14.076 21.767l-4.402-2.793-2.918 4.417c7.778 5.839 15.053 11.66 22.706 16.932 6.27 4.319 12.706 3.523 18.164-1.783 5.302-5.154 8.607-11.367 8.7-18.97.006-.442-.337-.888-.59-1.512h-3.738c-3.69 18.06-12.263 23.671-22.852 14.765 1.77-2.357 3.586-4.706 5.325-7.112 1.85-2.558 3.893-5.025 5.386-7.784 5.043-9.318-.243-17.945-11.705-17.927m-38.633 43.668c.541-.388 1.055-.822 1.627-1.156 6.607-3.852 12.874-3.325 18.423 1.533 5.735 5.02 7.846 12.168 5.435 18.4-2.484 6.422-8.903 10.757-16.127 10.122-3.812-.335-3.323 1.953-3.956 3.967 7.774 3.13 16.711-.095 22.388-7.822 5.87-7.992 5.382-18.393-1.23-26.207-6.565-7.757-16.405-9.975-25.206-5.682-8.498 4.146-13.3 11.93-11.77 19.228 2.786.426 4.288-.058 5.042-3.503.66-3.019 3.116-5.644 5.374-8.88m46.458-56.066c1.799-3.132 4.485-4.723 7.914-3.265 8.165 3.474 16.203 7.247 24.449 10.97l-5.186 11.543 4.251 2.014 5.384-11.441 8.252 3.646 2.353-4.883-8.04-4.182 2.79-6.794-4.31-1.592-3.182 6.474c-7.483-3.445-14.812-6.841-22.16-10.194-4.436-2.023-9.033-3.062-13.119.446-4.275 3.67-6.168 8.433-5.005 14.334h3.934c.454-2.244.87-4.303 1.675-7.076z"
    />
    <path
      fill="#FFF"
      d="M478 374.04c-.646-4.164 2.113-5.486 4.73-5.954 7.195-1.285 14.45-2.427 21.73-2.941 3.53-.25 6.701-.512 8.527-3.706 3.023-5.288 8.243-6.33 13.305-6.276 8.667.092 17.362.874 25.972 1.953 5.501.689 10.584 10.748 9.145 16.206-.721 2.736-1.818 3.703-4.683 3.76-6.647.133-11.927 2.693-17.189 7.363-6.296 5.589-14.202 9.502-21.754 13.49-4.954 2.617-10.376 5.092-15.836 5.855-12.325 1.721-19.308-3.816-21.912-17.3-.77-3.99-1.36-8.012-2.034-12.45zM59.954 659.859c.729-3.584 1.288-6.784 2.122-9.912 1.254-4.697 4.372-5.422 8.155-2.283 2.809 2.33 5.897 4.324 9.106 7.241-5.23-.763-8.043.789-7.282 5.978.15 1.02.987 2.8 1.441 2.78 4.455-.205 4.672 3.109 5.591 6.072.362 1.166 1.477 2.1 2.264 3.13 4.356 5.7 8.831 11.315 12.996 17.152 1.056 1.48 1.602 3.668 1.569 5.517-.144 7.93-.533 15.858-.993 23.778-.07 1.198-.66 2.823-1.563 3.447-9.214 6.366-10.69 12.172-6.011 22.333.608 1.322-.41 4.307-1.649 5.28-1.01.791-4.495.374-5.132-.624-3.81-5.973-7.114-12.268-10.585-18.456-1.186-2.115-2.234-4.32-3.567-6.337-3.096-4.689-5.368-9.48-5.528-15.369-.208-7.687-1.155-15.359-1.942-23.02-.141-1.377-1.043-2.674-1.764-4.418-4.081 3.307-6.027.516-7.217-2.528-2.702-6.91-1.644-14.031-.041-20.968.77-3.331 2.635-3.873 4.819-.525 1.079 1.655 2.185 4.519 5.211 1.732m24.452 63.14c1.17-.134 2.34-.27 4.289-.496-2.892-2.74-3.793-7.072-8.552-5.03-.207 2.84-.804 5.71 4.263 5.527zM109.546 1004.043c-.389-.934-.565-1.58-.616-2.235-.466-6.024-1.758-10.394-9.73-8.03-3.175.94-5.106-2.183-3.774-5.54 2.428-6.119 5.202-12.1 8.03-18.596 3.035 1.38 5.245 2.198 7.273 3.34 6.802 3.832 13.137 1.954 18.45-4.131 4.193-4.804 7.584-11.616 14.807-12.13 5.596-.398 11.665-1.096 16.46 4.219 2.993 3.317 7.347 5.479 11.31 7.782.68.395 2.752-.833 3.653-1.802.892-.961 1.117-2.543 2.139-5.129l9.588 9.898c-1.108 2.633-2.736 5.08-3.084 7.696-.418 3.146-.284 6.596.611 9.618.801 2.7 1.026 4.453-1.588 6.008-2.548 1.516-4.968 1.357-5.958-1.413-1.592-4.45-4.817-4.23-7.986-3.083-3.226 1.168-5.983.913-9.26.15-2.528-.589-5.53.866-8.322 1.414-4.718.926-9.589 4.453-13.6-.467-3.904 1.5-7.548 3.775-11.373 4.135-4.17.392-7.657.9-10.343 4.414-1.432 1.874-3.317 3.408-5.072 5.013-.104.095-.881-.548-1.615-1.13zM202.032 844.151c-.824-1.628-1.577-2.871-2.27-4.013-1.83.393-3.698 1.42-4.93.911-1.872-.774-.225-3.26 2.247-2.96.77.093 1.472.67 2.247.851.628.147 1.319.03 2.539.03.71-3.408 1.343-6.88 2.172-10.303.756-3.123 2.079-5.314 6.097-4.147 4.424 1.286 6.85-.685 6.805-5.48-.037-3.923-.81-7.839-.846-11.762-.016-1.747.978-3.503 1.812-6.228l7.387 11.632 1.023-1.043c1.573 1.18 3.593 2.057 4.637 3.595 3.37 4.965 7.27 6.485 13.106 5.315 6.455-1.294 11.987 1.799 16.962 5.22 3.042 2.09 2.252 5.457-.318 8.015-2.878 2.867-6.117 5.423-8.693 8.533-7.078 8.544-13.644 17.522-20.895 25.91-4.965 5.746-9.432 5.342-14.527-.112-2.539-2.717-5.643-5-7.754-7.997-2.224-3.158-6.199-5.62-4.983-10.68.34-1.412-1.116-3.255-1.818-5.287z"
    />
    <path
      fill="#F7F7F7"
      d="M447.066 603.002c-5.958 7.564-13.416 9.191-22.072 7.072-2.628-.643-5.085.22-8.022-1.963-4.322-3.214-6.545-7.28-9.618-11.211-4.334-5.546-3.55-10.528-2.165-15.837.957-3.666 3.477-6.923 5.298-10.364l-.875-1.032c-1.36 1.052-2.66 2.195-4.092 3.14-4.48 2.953-9.06 5.754-13.503 8.762-3.774 2.555-7.153 5.852-11.2 7.789-2.6 1.243-6.094.615-9.523.85v-12.59l9.8-5.91c-.275-.592-.472-2.034-1.275-2.575-5.756-3.878-9.318-8.83-8.865-16.112.155-2.487.025-4.993.024-7.49-.001-10.995 3.34-14.867 13.327-19.955 6.098-3.108 11.674-4.363 18.238-2.831 7.067 1.65 11.54 6.54 15.603 11.885 1.456 1.917 1.844 4.617 2.913 6.868.746 1.571 1.82 4.24 2.752 4.243 3.256.007 4.994 1.896 4.994 4.313 0 3.47-.081 7.417-4.556 9.924h8.094c12.268 0 22.608 10.494 22.71 22.864.045 5.455.413 10.89-3.649 15.349-1.38 1.516-2.636 3.147-4.338 4.811m-47.02-32.474 24.81-16.88-3.206-4.26-5.765 3.486c1.3-14.919-5.347-24.656-17.444-26.558-10.166-1.597-22.445 6.962-24.332 17.105-1.115 5.987.136 11.516 3.693 16.543 3.51 4.959 8.337 7.642 15.08 8.475l-20.356 14.004 3.288 4.537c8.01-5.427 15.83-10.726 24.231-16.452m39.97 2.949c6.417 7.057 7.072 14.269 1.733 20.238l-26.417-21.738c-8.337 8.504-8.977 20.03-1.819 28.037 6.735 7.532 16.908 9.461 25.317 4.8 8.983-4.978 13.687-15.597 11.068-24.985-2.487-8.919-12.846-16.888-21.48-16.726-4.053.076-3.567 2.255-2.09 3.732 4.38 2.052 8.762 4.105 13.689 6.642m-8.907-.391h-5.989l14.809 11.497 1.263-1.543c-3.126-3.197-6.252-6.394-10.083-9.954m-16.113-7.55-5.827 3.938h11.58v-7.328a277.303 277.303 0 0 0-5.753 3.39zM489.014 623.047c4.434-6 10.14-10.676 12.913-17.467 2.393-5.861 10.077-7.26 16.034-5.52 3.355.98 4.38 5.677 3.274 11.57-2.57 13.688-2.705 27.448-1.3 41.31.444 4.378-.64 8.91-1.022 13.359-7.888 3.33-13.44-2.446-13.066-10.077.514-10.47.129-20.983.129-31.829-4.707 5.552-9.283 10.778-13.648 16.175-2.142 2.648-4.56 5.374-5.677 8.487-2.236 6.232-7.092 4.917-11.625 4.961-.812.008-1.625-.07-2.476-.112l-4.301-40.601c-2.012 2.856-4.43 6.485-7.052 9.959a275.636 275.636 0 0 1-9.102 11.406c-2.402 2.856-4.616 6.203-7.685 8.044-1.965 1.177-6.429 1.05-7.784-.378-1.535-1.617-1.999-5.976-.878-8.018 2.174-3.963 5.908-7.041 8.747-10.68 1.642-2.105 2.59-4.747 4.212-6.871 5.125-6.71 10.43-13.283 15.629-19.938.367-.47.48-1.165.624-1.776 1.653-7.003 4.402-8.68 13.272-8.074 2.687.183 6.85 5.222 6.7 9.164-.367 9.567-1.2 19.116-1.817 28.674-.083 1.286-.012 2.58-.012 5.399 2.537-2.93 4.206-4.858 5.911-7.167m11.395.855 8.878-11.689 1.09.233v49.189l5.471 1.657c0-19.065.06-37.688-.144-56.308-.013-1.169-1.938-2.961-3.263-3.286-1.279-.314-3.514.446-4.33 1.505-8.33 10.802-16.452 21.763-24.64 32.674-.998 1.33-2.044 2.622-3.067 3.932l-1.698-.448c0-14.452-.194-28.909.106-43.355.103-4.973-1.747-6.925-6.536-6.88l-34.513 46.851c3.683 2.424 5.654 1.66 7.86-1.425 8.752-12.24 17.827-24.247 27.73-37.62 0 3.072-.024 4.658.004 6.243.237 13.484.402 26.971.827 40.45.055 1.759 1 4.088 2.332 5.078 2.455 1.825 4.044-.3 5.506-2.273 5.94-8.02 11.97-15.974 18.387-24.528z"
    />
    <path
      fill="#F8F8F8"
      d="M379.958 398.952c-.01 2.037-.01 4.102-.01 6.292 2.345-1.148 4.444-2.333 6.663-3.219 2.273-.908 4.662-1.523 7-2.267l.503 1.155c-1.22.709-2.439 1.417-2.906 1.69 3.809 8.814 6.044 17.496 2.725 26.605-3.116 8.55-9.574 14.256-17.983 17.613 17.77 15.01 23.488 33.12 18.704 54.761-13.166 1.582-25.417 1.933-37.013 4.871-6.855 1.737-13.428 2.363-20.283 2.631-2.741.107-4.103-1.047-4.31-3.469-.916-10.752-4.677-21.237-3.065-32.223 1.314-8.957 5.151-15.801 12.517-21.97 3.975-3.33 9.71-2.113 11.658-5.83-3.584-4.644-8.422-8.476-9.76-13.282-1.567-5.637-1.943-12.968.396-18.087 8.728-19.107 18.128-17.92 34.861-14.944.369-.275.313-.298.303-.327m-45.548 88.132 2.928 18.89 55.318-8.265c-1.31-8.665-2.237-16.939-3.86-25.074-2.962-14.833-14.994-24.458-28.582-23.35-15.791 1.289-25.88 11.407-26.639 26.978-.16 3.3.418 6.635.835 10.821m21.586-48.466c11.139 6.499 22.796 4.996 29.697-3.743 6.5-8.232 6.436-22.97-.081-27.603l-3.298 2.343c4.19 8.023 4.085 15.613-.358 21.399-3.454 4.498-7.95 6.673-13.812 5.813l5.8-34.33c-11.373-2.255-20.016 1.393-24.293 10.123-4.424 9.027-2.241 18.65 6.345 25.998m24.978-12.608v-11.587l-4.795-1.074c5.733 7.08-3.034 11.518-1.854 18.313 2.57-1.855 4.59-3.313 6.65-5.652z"
    />
    <path
      fill="#FFF"
      d="M114.863 726.03c3.73 1.897 6.516 4.83 11.053 4.235 1.068-.14 2.9 2.419 3.706 4.066 1.527 3.127 3.007 3.532 5.55 1.057a233.497 233.497 0 0 1 11.335-10.337c1.173-1 2.893-1.98 4.324-1.928 3.562.127 7.102.853 10.917 1.375v7.406l-6.352-.904c-7.47 13.802-15.13 26.778-27.716 35.485-5.648 3.908-13.038 5.565-19.87 1.716-3.962-2.23-7.736-5.031-10.942-8.23-1.05-1.046-.818-4.63.164-6.234 3.543-5.786 5.304-11.822 5.05-18.611-.094-2.55.476-5.219 1.23-7.684 1.179-3.849 3.923-4.786 7.601-3.012 1.168.564 2.374 1.049 3.95 1.6z"
    />
    <path
      fill="#F8F8F8"
      d="M648.702 328.764c5.563-5.21 10.688-10.354 16.19-15.057 6.34-5.42 12.864-10.659 19.662-15.479 1.435-1.017 5.3-.787 6.512.414 8.013 7.946 15.996 16 23.06 24.769 1.728 2.146.714 7.34-.481 10.603-.5 1.365-4.792 1.897-7.302 1.758-1.472-.082-2.928-2.133-4.22-3.466-4.316-4.455-8.6-8.945-12.788-13.52-.925-1.01-1.41-2.423-2.17-3.782-1.45.683-3.006 1.223-4.354 2.087-5.963 3.822-6.14 5.872-1.376 10.853 4.03 4.213 8.217 8.335 11.731 12.956 1.955 2.57 1.606 5.941-1.43 8.143-3.95 2.864-8.269 2.493-10.78-.475-4.31-5.093-8.722-10.105-13.287-14.966-.545-.58-2.774-.498-3.441.12-2.642 2.446-4.667 5.634-7.507 7.766-2.632 1.976-6.012 2.955-8.998 4.343-5.818-4.152-5.384-12.976.979-17.067m29.234-20.327-32.664 28.917 3.987 4.332 17.72-15.568 19.167 21.495 3.822-3.258-19.064-21.78 16.42-14.43 21.465 24.222 3.779-3.491-25.344-28.57c-3.264 2.86-6.006 5.263-9.288 8.131zM683.067 408.278c-.575 4.054-.575 4.054-4.258 2.866l4.944-13.59c-10.833-6.597-10.892-17.414-9.305-27.851.471-3.097 3.07-7.861 7.7-9.808 6.072-2.552 11.945-5.658 17.67-8.932 7.842-4.485 12.305-3.958 16.546 2.067-.752 11.108-10.808 10.044-17.015 14.068-4.077 2.643-9.764 3.267-11.465 9.185-1.77 6.154 3.472 13.08 9.641 11.507 4.965-1.265 9.418-4.461 14.355-5.946 3.308-.994 5.784-2.997 8.665-4.437 3.914-1.956 7.068.49 9.358 3.95 1.672 2.526.334 3.62-1.04 6-2.672 4.63-6.081 5.723-10.738 6.947-5.15 1.353-9.885 4.456-14.65 7.072-6.391 3.508-12.572 7.486-20.408 6.902m2.522-45.29c-5.399 3.223-8.914 7.84-8.394 14.248.73 9.003 5.146 15.702 14.76 18.613l-5.775 3.3 2.317 4.645 38.113-17.786-2.69-4.964c-7.169 3.292-13.756 6.46-20.46 9.36-8.678 3.754-15.862 1.06-19.428-7.05-3.346-7.608-.722-13.133 8.234-17.333l20.385-9.555-2.366-5.16a5984.3 5984.3 0 0 0-24.696 11.683z"
    />
    <path
      fill="#FFF"
      d="M59.72 798.57c.495-9.216-.699-18.21 4.626-28.039 1.858 3.77 4.204 6.513 4.48 9.45 1.08 11.464 2.233 23.006 1.959 34.485-.248 10.388-2.334 20.731-3.578 31.097-.448 3.737-.727 7.495-1.234 11.222-.358 2.63-.968 5.226-1.695 9.038-3.455-5.127-4.194-8.94-3.633-14.012.84-7.606-.547-15.44-.747-23.184-.255-9.874-.271-19.755-.179-30.058zM334.274 384.233c1.426-3.243 2.818-6.151 3.68-9.209 1.685-5.982 4.751-10.936 9.939-14.41 4.106-2.749 6.796 1.273 9.527 2.876 1.12.658 1.12 5.43-.038 7.294-2.344 3.77-5.89 6.776-8.815 10.203-1.676 1.964-3.108 4.136-5.046 6.748 1.511 1.237 3.329 2.046 3.962 3.406.897 1.928 2.002 4.986 1.126 6.294-3.416 5.098-7.579 9.697-11.463 14.481-8.53-5.562-10.075-19.02-2.872-27.683z"
    />
    <path
      fill="#F9F9F9"
      d="M735.856 414.018c-3.85.788-7.26 1.532-10.645 2.372-6.091 1.51-12.101 3.508-18.275 4.466-3.839.595-7.601.29-11.198 2.607-1.846 1.19-4.805.65-7.508.917-.133-1.88-.067-3.214-.35-4.47-.521-2.33-2.372-6.159-1.694-6.652 3.117-2.27 6.842-3.798 10.5-5.201 2.075-.797 4.483-.673 6.667-1.249 9.494-2.502 18.729-5.853 28.81-6.045 3.986-.076 8.497-1.808 11.75-4.183 4.548-3.32 6.569 1.498 9.842 1.805-.244 2.045-.376 4.112-.755 6.132-.905 4.827-3.39 7.152-8.79 6.74-2.549-.194-5.262 1.774-8.354 2.761m-22.02.222 35.535-8.11-1.822-5.429-57.593 13.29c.58 2.075 1.005 3.602 1.521 5.453 7.375-1.696 14.468-3.326 22.359-5.204zM704.848 441.018c-3.589.158-6.722.51-9.836.385-1.356-.054-3.546-.81-3.84-1.732-.778-2.447-4.563-4.344-1.719-7.657.915-1.065 1.468-2.44 2.653-4.474 13.731-.827 28.152-1.512 42.532-2.684 3.779-.308 7.419-2.181 11.155-3.219 1.4-.389 2.889-.571 4.346-.63 3.508-.141 6.883.625 7.76 4.486.948 4.173-.584 7.907-4.768 9.46-3.87 1.437-7.988 2.478-12.084 2.954-4.275.497-8.685-.228-12.978.186-7.609.733-15.174 1.925-23.22 2.925m45.372-9.186c4.787-.568 2.373-3.444 2.124-6.076l-58.613 6.355.48 5.61c18.708-1.972 36.913-3.89 56.009-5.889z"
    />
    <path
      fill="#FFF"
      d="M766.64 365.39c2.779 5.69 2.865 11.202 1.744 16.996-.498 2.577.608 5.423.557 8.138-.074 3.995-2.955 6.06-6.87 5.457-2.276-.35-4.593-.427-8.263-.746-1.937-4.59-4.777-10.14-6.493-16.02-.611-2.091 1.025-5.304 2.47-7.44 3.638-5.372 11.973-8.477 16.854-6.386z"
    />
    <path
      fill="#F7F7F7"
      d="M592.062 287.055c-.706 3.022-1.244 5.674-2.072 8.232-1.065 3.29-1.492 7.616-3.81 9.434-2.203 1.726-6.618 1.398-9.79.719-1.182-.253-2.313-4.1-2.2-6.241.162-3.112 1.31-6.218 2.326-9.23 1.978-5.867 4.212-11.649 6.229-17.505 1.284-3.728 2.027-7.682 3.66-11.238 1.095-2.384 8.999-3.804 10.025-1.836 2.784 5.343 7.372 3.12 11.331 3.56 1.47.165 2.972.027 4.897.027.46 2.033 1.214 4.013 1.302 6.022.199 4.525-2.182 6.804-6.882 7.023-11.61.542-11.61.542-15.016 11.033m-7.27-9.808-7.416 24.36 5.335 1.835c1.817-5.947 3.561-11.61 5.278-17.28 3.948-13.04 7.106-15.281 20.413-14.186l1.414-5.035c-3.165-.248-5.995-.934-8.67-.55-2.741.394-5.331 1.837-8.244 2.916.531-2.116 1.03-4.1 1.601-6.38l-5.134-1.141a1558.78 1558.78 0 0 0-4.577 15.46z"
    />
    <path
      fill="#FFF"
      d="M953.584 62.908c-2.917 1.68-4.475 1.572-5.778-1.811-1.19-3.086-3.488-5.856-5.71-8.407-3.556-4.086-3.1-7.802 2.106-8.573 6.226-.922 12.69-.689 19.018-.355 6.654.351 13.272 1.39 19.9 2.183 1.281.154 2.534.558 3.8.846-.537 1.46-.689 3.75-1.688 4.213-2.412 1.12-5.226 1.927-7.867 1.898-9.303-.1-17.513 2.038-23.78 10.006zM326.223 457.452c-.889 2.3-1.61 4.265-2.35 6.284-5.52-3.91-6.175-10.944-2.911-17.027 2.106-3.926 3.266-8.347 5.105-12.43 2.034-4.52 4.36-8.907 6.865-13.973 1.837 1.205 3.551 1.693 3.951 2.701a162.019 162.019 0 0 1 4.996 14.625c.268.924-.665 2.464-1.443 3.38-4.616 5.423-9.35 10.746-14.213 16.44zM138.823 39.994c4.49-.103 8.521-.273 12.553-.277 3.47-.004 7.047-.292 10.375.452 2.235.5 4.118 2.58 6.158 3.952-1.975 1.293-3.795 2.99-5.95 3.811-10.78 4.108-21.661.07-32.478-.178-6.189-.141-11.785-3.709-16.139-9.386 4.817 0 9.646-.203 14.448.068 3.543.2 7.051 1.02 11.033 1.558zM189.967 745.26c1.001 2.747 1.896 5.127 2.97 7.423 2.382 5.09 1.494 7.054-3.962 8.358-2.219.53-4.456.986-6.685 1.475l-.52-1.505-5.971 6.88c-7.881-2.81-8.965-6.46-4.585-12.768 1.772-2.551 3.03-5.687 3.684-8.737 1.199-5.589 3.204-6.953 8.395-4.687 2.247.982 4.435 2.1 6.674 3.56zM134.998 924.583c-.962 1.876-1.65 3.66-2.935 4.726-3.58 2.976-6.056 1.633-7.138-2.971-1.056-4.493-3.371-8.725-4.13-13.24-.838-4.98-1.168-10.256-.368-15.184.267-1.643 4.646-3.382 7.257-3.577 1.44-.107 3.131 2.882 4.662 4.52.314.336.559.857.6 1.314a3047.37 3047.37 0 0 1 2.052 24.412zM667.284 491.31c3.338-5.577 6.455-10.842 9.623-16.191 2.904 2.422 4.797 7.351 4.034 10.524-2.07 8.609-4.167 17.306-9.025 24.801-1.583 2.443-5.044 3.67-7.646 5.452-.757-1.219-2.171-2.443-2.161-3.656.059-7.22 1.068-14.284 5.175-20.93zM181.804 863.49c-2.517 1.745-5.948 4.837-6.996 4.172-3.057-1.938-6.116-4.996-7.443-8.309-2.815-7.03 3.18-17.08 11.432-19.496 1.158 7.8 6.16 14.85 3.007 23.633zM643.67 532.788c4.459-5.55 8.67-10.813 13.405-16.73 2.727 4.366 2.42 7.62.94 10.71-2.242 4.678-4.895 9.159-7.17 13.823-1.177 2.412-2.05 4.997-2.813 7.577-.802 2.715-1.532 5.431-5.098 5.196-3.4-.224-4.47-2.772-3.84-5.512 1.146-4.993 2.854-9.857 4.576-15.064zM281.75 459.075c4.552-2.367 5.536-5.936 5.39-10.48-.091-2.79.874-5.757 1.993-8.377.46-1.078 2.547-1.877 3.936-1.946.587-.029 1.86 2.166 1.835 3.329-.15 7.252-.18 14.552-1.125 21.72-.356 2.702-2.577 5.702-4.82 7.443-1.911 1.484-5.208 2.6-7.385-.67-2.396-3.6-2.434-7.235.177-11.019zM512.835 320.68c4.95-2.218 10.175-.03 12.234 4.745 1.532 3.554-.39 7.556-4.914 9.496-2.953 1.266-6.047 2.36-9.185 3.001-4.127.844-7.37-1.008-9.306-3.787 3.714-4.488 7.312-8.836 11.171-13.454zM679.19 467.46c-3.222-9.006-1.367-16.89 3.836-24.06.865-1.192 3.035-1.438 4.602-2.121.656 1.86 2.28 4.07 1.76 5.501-.964 2.649-1.938 4.674.423 7.074.578.588.503 2.46.014 3.349-2.473 4.492-5.182 8.855-8.217 13.948-1.252-1.83-1.76-2.574-2.417-3.69zM903.656 47.7c4.56-1.322 8.701-2.85 12.965-3.373 2.949-.361 6.068.667 8.454.986-6.73 9.839-15.977 11.511-26.364 8.416-1.216-.363-1.946-2.354-3.454-4.305 3.16-.59 5.596-1.046 8.399-1.724zM762.994 491.775c-.209-3.135-.461-5.847-.593-8.565-.123-2.55.107-5.136-.235-7.65-.338-2.488-.454-4.63 2.495-5.402 2.796-.733 4.427.165 5.396 3.183 3.023 9.418 1.217 17.927-5.523 22.802-.533-1.373-1.032-2.66-1.54-4.368z"
    />
    <path
      fill="#FAFAFA"
      d="M566.014 609.665c-.553 4.539-3.711 6.372-7.041 7.149-1.736.404-5.26-.776-5.691-2.028-1.184-3.435-7.202-6.962-.773-11.11.744-.48.603-2.33.854-3.458 12.208-.768 12.651-.444 12.651 9.447m-5.408 2.314c2.404-1.776 3.186-4.226 1.13-6.36-1.066-1.107-3.718-1.65-5.167-1.12-1.16.425-2.366 2.959-2.177 4.372.38 2.834 2.532 4.112 6.214 3.108z"
    />
    <path
      fill="#FFF"
      d="M859.016 476.562c2.157-3.447 4.082-6.669 6.514-9.447 2.023-2.31 4.097-1.475 5.168 1.241 1.743 4.419-2.804 14.855-7.268 16.404-2.257.783-4.381.364-4.422-2.808-.02-1.657-.004-3.314.008-5.39z"
    />
    <path
      fill="#FAFAFA"
      d="M631.575 316.195c-.6 2.338-1.446 4.359-2.36 6.544-4.888.606-10.675 3.226-14.33-2.671-1.106-1.784-1.06-5.573.134-7.251 3.815-5.362 9.497-3.046 14.232-2.652.785 2.157 1.432 3.935 2.324 6.03m-12.674-1.792c.43 1.898.506 4.01 1.457 5.596.41.682 3.473.843 3.878.25 1.116-1.635 2.512-4.245 1.905-5.653-1.406-3.257-4.209-3.322-7.24-.193z"
    />
    <path
      fill="#FFF"
      d="M108.758 710.653c-.191 3.1-.191 5.868-.191 9.878-4.428-6.447-4.73-15.96-1.556-23.963 5.994 3.535 6.192 4.941 1.747 14.085zM866 437.933v-11.454c5.307 3.548 7.006 7.745 5.667 13.27-.342 1.406-.194 2.981-.75 4.272-.49 1.134-1.65 1.978-2.514 2.95-.8-1.033-2.034-1.968-2.297-3.123-.394-1.731-.105-3.618-.106-5.915zM389.239 275.443c5.11-1.78 7.99.713 9.93 8.983-2.814.197-5.994 1.39-8.005.342-3.36-1.75-2.599-5.662-1.925-9.325zM852.016 402.57c.496-1.432.98-2.437 2.135-4.84l6.98 9.433c-1.215 1.873-1.83 3.87-3.16 4.656-2.89 1.708-5.835-.356-5.96-3.837-.06-1.66-.008-3.323.005-5.412zM379.972 319.654c-.989 4.683-3.495 6.936-8.005 6.287-.767-.11-2.11-1.221-2.042-1.381 1.099-2.575 1.905-5.567 3.805-7.398 1.134-1.093 4.05-.355 6.161-.308.052.001.069 1.552.08 2.8zM319.003 476.3c1.107-1.72 2.211-3.004 3.315-4.289 1.005 1.243 2.275 2.361 2.934 3.767.586 1.249 1.047 3.045.574 4.19-.76 1.842-2.337 3.346-3.568 4.993-1.086-1.918-2.263-3.793-3.207-5.779-.32-.671-.05-1.623-.048-2.882zM999.873 458.262c-.533 1.41-.97 2.399-1.85 4.398-2.043-8.773-3.547-16.53.36-24.26l1.588-.039c0 6.493 0 12.986-.098 19.901zM823.954 352.001c1.88-2.319 3.386-4.567 5.223-7.308 1.254 6.169-1.498 13.342-5.751 16.125-3.046-2.976-2.671-5.873.528-8.817zM82.085 652.805c.481-2.265.903-4.132 1.354-6.128 5.247-1.157 6.867 3.058 3.877 13.15-2.067-2.588-3.679-4.606-5.23-7.022zM995.93 1002.995c-.907 2.338-1.866 4.276-3.077 6.721l-10.291-7.278.818-1.092c2.015.629 3.998 1.592 6.055 1.793 2.11.207 4.293-.332 6.496-.144zM94.238 1009.749c.612 1.176.96 2.096 1.307 3.017h-6.262l1-5.394c1.24.712 2.466 1.416 3.955 2.377zM684.69 424.432c1.842 1.549 3.345 2.927 4.847 4.305l-.94 1.528c-1.743-.547-3.742-.765-5.098-1.814-.498-.386.524-2.736 1.192-4.019zM846.674 388.419c1.65 2.129 2.968 4.1 4.547 6.463h-5.714c.296-2.344.565-4.483 1.167-6.463z"
    />
    <path
      fill="#47704C"
      d="M750.63 956.893c3.81-4.359 7.923-5.247 12.508-2.243a170.424 170.424 0 0 1 10.31 7.34c4.921 3.774 9.82 7.59 14.514 11.636 1.238 1.066 1.691 3.043 2.647 4.873-7.23 1.117-13.182 1.846-19.408-1.273-4.468-2.238-10.092-2.032-14.944-3.673-5.737-1.94-9.589-10.33-5.627-16.66zM344.258 973.315c-1.62.79-2.926 1.337-5.915 2.589 1.047-2.843 1.258-5.336 2.24-5.69 2.193-.792 4.772-.516 7.193-.675l.334 1.671c-1.18.62-2.359 1.241-3.852 2.105zM156.608 118.858c-.048 3.017.069 5.736.414 8.426.668 5.21-1.233 8.817-6.263 10.624-4.49-4.105-5.41-17.026-1.54-21.618 3.28-3.891 5.585-3.211 7.389 2.568zM145.65 94.19c.701 1.333.981 2.483 1.615 3.385 1.713 2.438 1.848 5.38-.415 6.722-1.985 1.177-5.389 1.39-7.478.468-1.415-.623-2.52-4.108-2.173-6.025.432-2.388 2.315-4.646 4.022-6.557.334-.374 2.728 1.094 4.43 2.007zM129 610.236c-1.002-2.54-2.195-4.577-2.947-6.764-.65-1.893-1.368-4.063-1.024-5.92.449-2.432 2.24-2.886 4.154-.879 1.375 1.442 3.23 2.605 4.11 4.29.976 1.871 1.846 4.365 1.412 6.281-.782 3.452-2.571 6.676-4.18 10.577-2.853-1.337-1.042-4.677-1.525-7.585zM119.965 589.713c-.46 2.325-.722 4.28-1.4 6.08-.332.88-1.362 1.92-2.21 2.057-.753.122-2.037-.697-2.494-1.457-4.513-7.494-1.644-13.922 7.037-15.8-.304 2.914-.605 5.8-.933 9.12z"
    />
    <path
      fill="#0A0A0A"
      d="M482.775 274.317c-.76-3.476-1.43-6.54-2.171-9.941l5.092-1.277c.6 2.333 1.131 4.392 1.815 7.044 4.15-6.847 9.74-10.988 17.705-11.332 5.386-.232 10.21 1.06 14.364 4.545 8.047 6.748 10.113 20.553 4.374 29.067-6.361 9.437-17.72 11.519-30.194 5.096.8 3.884 1.514 7.35 2.23 10.814.732 3.537 1.466 7.073 2.29 11.047l-5.558.88c-3.337-15.417-6.596-30.474-9.947-45.943m35.579 16.414c4.33-7.101 4.164-14.893-.448-20.967-3.785-4.984-10.349-7.101-16.544-5.335-6.457 1.84-10.799 7.11-11.31 13.724-.556 7.184 3.17 14.15 9.104 17.022 6.068 2.937 12.798 1.546 19.198-4.444z"
    />
    <path
      fill="#0D0D0D"
      d="M415.668 353.81c5.15-4.414 7.159-9.845 6.99-16.368l3.837-.284c3.068 3.052-.497 13.735-6.185 19.348-8.905 8.79-21.75 8.543-30.685-.588-8.362-8.545-8.213-21.157.346-29.392 8.248-7.936 20.558-7.598 28.59.989l-21.384 26.749c5.725 4.426 11.168 4.325 18.49-.454m-4.524-23.914c-.41-.812-.608-2.018-1.265-2.375-6.22-3.371-14.104-1.298-18.488 4.726-4.424 6.08-3.675 13.416 2.191 19.523 5.729-7.08 11.434-14.13 17.562-21.874z"
    />
    <path
      fill="#0B0B0B"
      d="M533.082 282.354c-1.01-7.096-.165-13.359 4.064-18.873 5.636-7.35 15.857-9.745 24.748-5.782 8.48 3.78 12.95 12.784 10.916 22.593l-34.53-2.302c.085 6.274 2.735 10.634 7.865 13.519 6.304 3.544 12.976 2.877 20.855-2.106l2.545 3.285c-11.112 11.74-30.81 6.203-36.463-10.334m12.523-19.521c-4.035 2.456-6.437 5.87-6.658 10.888 9.844.661 19.357 1.3 28.909 1.94-.258-11.81-10.161-17.673-22.251-12.828zM438.148 308.678c-5.437-11.886-2.644-22.357 7.356-28.552 9.627-5.965 21.061-4.15 27.749 4.404 8.052 10.298 6.546 23.467-3.523 30.819-10.87 7.935-23.482 5.39-31.582-6.671m8.141-22.98c-6.033 5.993-7.12 12.118-3.444 19.422 3.36 6.677 9.705 10.364 16.111 9.363 6.973-1.09 12.13-5.697 13.625-12.176 1.378-5.97-1.944-14.083-7.59-17.842-6.149-4.092-12.247-3.33-18.702 1.232z"
    />
    <path
      fill="#060606"
      d="M382.29 363.713c6.006 6.725 11.868 13.11 17.454 19.727.99 1.172 1.56 3.646.988 4.921-.58 1.294-2.802 2.587-4.323 2.608-13.983.196-27.97.116-42.14.116.28-4.243 2.063-5.655 6.04-5.567 11.263.25 22.535.087 34.624.087l-25.836-29.023 2.36-4.857 10.833 11.988z"
    />
    <path
      fill="#0B0B0B"
      d="M415.893 299.1c9.413 11.15 18.6 22.027 27.926 33.07l-4.318 3.673-38.187-45.172 4.233-3.8c3.486 4.119 6.802 8.037 10.346 12.23z"
    />
    <path
      fill="#47704C"
      d="M546.74 286.29c-1.339-.92-2.378-1.607-3.416-2.295l.325-1.3 21.211 1.355c-8.077 7.27-9.502 7.378-18.12 2.24zM415.108 347.714c-2.046 1.787-3.9 3.295-5.917 4.538-.585.36-1.764.184-2.43-.183-.35-.194-.515-1.59-.195-2.002 3.402-4.379 6.919-8.669 10.985-12.642-1.061 3.363 3.512 7.912-2.443 10.289zM424.347 332.986h-2.834l3.567-7.076 2.794 6.274c-1.044.267-2.088.534-3.527.802zM381.69 356.134c-.419-.85-.551-1.428-.684-2.006l.757-.51 2.104 2.616c-.63.057-1.26.114-2.176-.1z"
    />
    <path
      fill="#0B0B0B"
      d="M719.417 481.474c4.863-8.312 9.112-10.796 16.075-9.575 6.043 1.06 10.636 5.765 11.444 12.23 1.267 10.123-1.576 19.032-8.474 26.94-.859-.475-1.562-.813-2.21-1.235-.552-.361-1.042-.819-1.78-1.41.362-.667.636-1.422 1.115-2.011 4.122-5.069 6.523-10.759 6.542-17.378.019-6.145-2.356-9.967-7.069-11.202-4.304-1.127-7.753.719-10.739 6.076-2.505 4.495-4.643 9.196-7.189 13.667-4.125 7.243-8.695 9.648-15.335 8.424-6.18-1.139-10.683-5.886-11.32-13.471-.957-11.382 2.737-21.176 11.617-28.991l4.142 2.999c-6.335 5.42-9.934 12.174-10.725 20.28-.206 2.112-.46 4.701.526 6.337 1.581 2.623 3.8 5.396 6.442 6.71 3.276 1.63 6.703-.17 8.59-3.247 2.946-4.805 5.448-9.881 8.348-15.143zM612.234 588.248c1.619-.81 2.944-1.34 4.551-1.984l23.456 54.303-5.149 2.354-15.765-36.325c-7.026 10.8-8.592 24.353-17.834 33.21l-2.22-1.219 9.031-21.716-27.016-14.647c3.28-3.203 6.185-3.22 9.788-1.094 6.28 3.706 12.851 6.916 19.615 10.5 1.68-3.658 3.69-6.992 4.674-10.606.518-1.902-.644-4.323-1.252-6.452-.587-2.054-1.438-4.033-1.879-6.324z"
    />
    <path
      fill="#0C0C0C"
      d="M675.481 534.138c11.062.035 16.348 8.662 11.305 17.98-1.493 2.76-3.536 5.226-5.386 7.784-1.739 2.406-3.556 4.755-5.325 7.112 10.59 8.906 19.162 3.294 22.852-14.765h3.737c.254.624.597 1.07.592 1.513-.094 7.602-3.4 13.815-8.701 18.97-5.458 5.305-11.895 6.1-18.164 1.782-7.653-5.272-14.928-11.093-22.706-16.932l2.918-4.417 4.402 2.793c-.245-10.69 4.13-18.072 14.476-21.82m-8.879 13.255c-3.266 8.388-1.758 12.612 6.302 16.834 3.239-4.541 6.693-9.015 9.72-13.762 1.958-3.073 1.877-6.39-1.163-9.013-3.09-2.666-6.499-2.615-9.582-.257-1.927 1.474-3.319 3.646-5.277 6.198z"
    />
    <path
      fill="#0B0B0B"
      d="M636.15 578.077c-1.96 3.018-4.415 5.643-5.076 8.662-.754 3.445-2.256 3.929-5.043 3.503-1.53-7.298 3.273-15.082 11.771-19.228 8.8-4.293 18.64-2.075 25.205 5.682 6.613 7.814 7.102 18.215 1.23 26.207-5.676 7.727-14.613 10.953-22.387 7.822.633-2.014.144-4.302 3.956-3.967 7.224.635 13.643-3.7 16.127-10.122 2.411-6.232.3-13.38-5.435-18.4-5.549-4.858-11.816-5.385-18.423-1.533-.572.334-1.086.768-1.925 1.374z"
    />
    <path
      fill="#0C0C0C"
      d="M682.712 522.15c-.611 2.416-1.027 4.475-1.48 6.72h-3.935c-1.163-5.902.73-10.665 5.005-14.335 4.086-3.508 8.683-2.469 13.118-.446 7.35 3.353 14.678 6.75 22.161 10.194l3.181-6.474 4.311 1.592-2.79 6.794 8.04 4.182-2.353 4.883-8.252-3.646-5.384 11.441-4.25-2.014 5.185-11.543c-8.246-3.723-16.284-7.496-24.45-10.97-3.428-1.458-6.114.133-8.107 3.622z"
    />
    <path
      fill="#47704C"
      d="M83.982 723c-4.643.183-4.046-2.687-3.839-5.527 4.759-2.042 5.66 2.29 8.552 5.03-1.95.226-3.12.362-4.713.496z"
    />
    <path
      fill="#0A0A0A"
      d="M399.755 570.741c-8.11 5.513-15.93 10.812-23.94 16.239l-3.289-4.537 20.357-14.004c-6.744-.833-11.57-3.516-15.08-8.475-3.558-5.027-4.809-10.556-3.694-16.543 1.887-10.143 14.166-18.702 24.332-17.105 12.097 1.902 18.744 11.64 17.444 26.558l5.765-3.487 3.206 4.26c-8.389 5.708-16.6 11.294-25.1 17.094m-14.147-9.686c3.409.976 6.835 2.829 10.222 2.759 9.032-.187 16.934-9.278 16.003-17.556-1.03-9.16-9.306-15.784-18.19-14.142-6.61 1.222-11.498 5.023-13.766 11.554-2.37 6.82.205 12.271 5.73 17.385z"
    />
    <path
      fill="#0C0C0C"
      d="M439.743 573.234c-4.654-2.294-9.035-4.347-13.416-6.4-1.477-1.476-1.963-3.655 2.09-3.731 8.634-.162 18.993 7.807 21.48 16.726 2.619 9.388-2.085 20.007-11.068 24.985-8.41 4.661-18.582 2.732-25.317-4.8-7.158-8.007-6.518-19.533 1.819-28.037l26.417 21.738c5.34-5.97 4.684-13.181-2.005-20.48m-10.888 15.4-12.277-10.023c-4.78 8.304-3.194 16.273 3.825 21.077 6.125 4.191 13.826 3.152 18.599-2.66-3.199-2.645-6.4-5.292-10.147-8.394z"
    />
    <path
      fill="#47704C"
      d="M431.462 573.267c3.478 3.379 6.604 6.576 9.73 9.773l-1.263 1.543-14.809-11.497c3.023 0 4.506 0 6.342.181zM415.335 565.308a458.425 458.425 0 0 1 5.413-3.162v7.328h-11.58l6.167-4.166z"
    />
    <path
      fill="#0B0B0B"
      d="M500.198 624.19c-6.207 8.266-12.236 16.22-18.176 24.24-1.462 1.974-3.05 4.098-5.506 2.273-1.332-.99-2.277-3.32-2.332-5.078-.425-13.479-.59-26.966-.827-40.45-.028-1.585-.004-3.17-.004-6.243-9.903 13.373-18.978 25.38-27.73 37.62-2.206 3.086-4.177 3.849-7.86 1.425l34.513-46.85c4.79-.046 6.64 1.906 6.536 6.879-.3 14.446-.106 28.903-.106 43.355l1.698.448c1.023-1.31 2.07-2.603 3.067-3.932 8.188-10.91 16.31-21.872 24.64-32.674.816-1.059 3.051-1.82 4.33-1.505 1.325.325 3.25 2.117 3.263 3.286.205 18.62.144 37.243.144 56.308l-5.471-1.657v-49.189l-1.09-.233c-2.96 3.897-5.919 7.793-9.089 11.977z"
    />
    <path
      fill="#0C0C0C"
      d="M334.32 486.65c-.327-3.752-.905-7.088-.745-10.387.758-15.571 10.848-25.69 26.639-26.977 13.588-1.109 25.62 8.516 28.581 23.35 1.624 8.134 2.551 16.408 3.86 25.073l-55.317 8.266c-1.005-6.483-1.966-12.687-3.018-19.325m32.226-30.95c-16.074-2.938-28.578 7.724-27.673 23.943.357 6.414 1.593 12.779 2.501 19.716l45.389-6.768c-1.154-7.001-1.846-13.623-3.401-20.034-2.057-8.478-7.231-14.429-16.816-16.857z"
    />
    <path
      fill="#0D0D0D"
      d="M355.718 438.379c-8.308-7.11-10.49-16.732-6.067-25.76 4.277-8.73 12.92-12.377 24.293-10.122l-5.8 34.33c5.863.86 10.358-1.315 13.812-5.813 4.443-5.786 4.548-13.376.358-21.399l3.298-2.343c6.517 4.633 6.58 19.371.081 27.603-6.9 8.74-18.558 10.242-29.975 3.504m12.426-27.557.53-3.627c-9.298-.4-15.314 4.761-16.314 13.575-.805 7.091 4.039 13.443 11.572 14.968a6282.811 6282.811 0 0 0 4.212-24.916z"
    />
    <path
      fill="#47704C"
      d="M380.955 426.45c-2.04 1.899-4.06 3.357-6.63 5.212-1.18-6.795 7.587-11.232 1.854-18.313l4.795 1.074c0 4.017 0 7.802-.02 12.027z"
    />
    <path
      fill="#0B0B0B"
      d="M678.206 308.205c3.012-2.636 5.754-5.04 9.018-7.9 8.417 9.49 16.737 18.868 25.344 28.57l-3.779 3.492-21.466-24.223-16.419 14.431 19.064 21.78-3.822 3.258-19.166-21.495-17.721 15.568-3.987-4.332c11.031-9.766 21.848-19.341 32.934-29.149zM685.91 362.814c8.254-3.912 16.186-7.65 24.375-11.508l2.366 5.16c-6.946 3.256-13.666 6.404-20.385 9.555-8.956 4.2-11.58 9.725-8.234 17.334 3.566 8.11 10.75 10.803 19.428 7.049 6.704-2.9 13.291-6.068 20.46-9.36l2.69 4.964-38.113 17.786-2.317-4.646 5.775-3.299c-9.614-2.911-14.03-9.61-14.76-18.613-.52-6.408 2.995-11.025 8.715-14.422z"
    />
    <path
      fill="#0C0C0C"
      d="M713.437 414.364a5543.391 5543.391 0 0 1-21.96 5.08l-1.52-5.454 57.592-13.289 1.822 5.428c-12.07 2.755-23.803 5.433-35.934 8.235z"
    />
    <path
      fill="#0D0D0D"
      d="M749.775 431.872c-18.65 1.959-36.855 3.877-55.563 5.848l-.48-5.609 58.613-6.355c.249 2.632 2.663 5.508-2.57 6.116zM584.88 276.854c1.51-5.133 2.931-9.874 4.49-15.068l5.133 1.14-1.6 6.381c2.912-1.079 5.502-2.522 8.243-2.916 2.675-.385 5.505.302 8.67.55l-1.414 5.035c-13.307-1.095-16.465 1.146-20.413 14.186-1.717 5.67-3.46 11.333-5.278 17.28l-5.335-1.834c2.52-8.278 4.967-16.32 7.504-24.754z"
    />
    <path
      fill="#101010"
      d="M560.261 612.09c-3.337.893-5.489-.385-5.869-3.219-.19-1.413 1.016-3.947 2.177-4.372 1.449-.53 4.1.013 5.167 1.12 2.056 2.134 1.274 4.584-1.475 6.47z"
    />
    <path
      fill="#131313"
      d="M619.099 314.09c2.833-2.816 5.636-2.75 7.042.506.607 1.408-.79 4.018-1.905 5.653-.405.593-3.468.432-3.878-.25-.951-1.586-1.026-3.698-1.26-5.91z"
    />
    <path
      fill="#F5F5F5"
      d="M518.118 291.019c-6.164 5.702-12.894 7.093-18.962 4.156-5.934-2.873-9.66-9.838-9.104-17.022.511-6.614 4.853-11.884 11.31-13.724 6.195-1.766 12.76.35 16.544 5.335 4.612 6.074 4.778 13.866.212 21.255m-21.746-17.886c-2.592 4.901-2.042 12.234 1.89 16.326 5.807 6.045 11.783 2.082 17.625-.347.365-11.063.365-11.063-2.549-16.307-3.001-5.403-12.93-5.547-16.966.328zM410.932 330.242c-5.917 7.398-11.622 14.449-17.35 21.528-5.867-6.107-6.616-13.443-2.192-19.523 4.384-6.024 12.268-8.097 18.488-4.726.657.357.854 1.563 1.054 2.721m-16.787 13.644 10.756-13.186c-6.92-.822-11.913 5.51-10.756 13.186z"
    />
    <path
      fill="#F7F7F7"
      d="M545.919 262.603c11.776-4.615 21.679 1.249 21.937 13.059l-28.91-1.94c.222-5.019 2.624-8.433 6.973-11.12m7.598 8.374 7.465-.388c-2.488-7.414-7.992-3.745-11.946-4.395-1.21-.2-2.749 1.6-4.138 2.483.189.44.377.882.565 1.323 2.388.325 4.775.651 8.054.977zM446.573 285.457c6.171-4.322 12.27-5.084 18.418-.992 5.646 3.759 8.968 11.872 7.59 17.842-1.496 6.479-6.652 11.086-13.625 12.176-6.406 1.001-12.751-2.686-16.111-9.363-3.675-7.304-2.59-13.43 3.728-19.663m13.416 24.516c7.96-4.853 8.962-7.515 5.955-15.816-1.765-4.873-8.38-8.988-13.065-8.127-3.125.574-8.224 8.797-7.854 12.664.606 6.341 6.793 11.285 14.964 11.28z"
    />
    <path
      fill="#F5F5F5"
      d="M666.765 547.047c1.795-2.206 3.187-4.378 5.114-5.852 3.083-2.358 6.492-2.41 9.582.257 3.04 2.624 3.121 5.94 1.163 9.013-3.027 4.747-6.481 9.22-9.72 13.762-8.06-4.222-9.568-8.446-6.139-17.18m10.67 5.797c.607-2.193 1.215-4.385 1.834-6.613-5.443-2.404-7.416-1.398-9.392 5.398-.427 1.472.126 3.229.227 4.854 1.36-.707 2.727-1.403 4.08-2.126.834-.445 1.646-.93 3.25-1.513z"
    />
    <path
      fill="#F8F8F8"
      d="M385.307 560.838c-5.224-4.897-7.798-10.347-5.43-17.168 2.269-6.531 7.157-10.332 13.767-11.554 8.884-1.642 17.16 4.983 18.19 14.142.93 8.278-6.97 17.369-16.003 17.556-3.387.07-6.813-1.783-10.524-2.976m12.542-24.79c-5.439-.046-12.576 4.064-13.753 8.192-1.978 6.94 2.159 11.824 7.15 14.73 7.73 4.5 10.831-5.153 18.173-6.961-1.74-3.64-2.877-6.888-4.738-9.647-1.579-2.34-3.993-4.116-6.832-6.313z"
    />
    <path
      fill="#F9F9F9"
      d="m429.128 588.862 9.874 8.168c-4.773 5.81-12.474 6.85-18.599 2.659-7.02-4.804-8.604-12.773-3.825-21.077 4.131 3.373 8.204 6.698 12.55 10.25m-8.503 3.248c2.834 2.434 4.779 6.828 9.769 4.659l-11.97-10.497-.94.6c.862 1.566 1.723 3.133 3.14 5.238z"
    />
    <path
      fill="#F7F7F7"
      d="M366.946 455.79c9.185 2.338 14.36 8.29 16.416 16.767 1.555 6.411 2.247 13.033 3.4 20.034l-45.388 6.768c-.908-6.937-2.144-13.302-2.501-19.716-.905-16.219 11.6-26.881 28.073-23.852m-3.505 36.187 17.627-3.15c-.537-6.94.104-12.905-3.353-19.305-3.816-7.061-10.824-7.44-15.936-11.401-.525-.407-2.102.405-3.125.816-1.792.72-3.528 1.579-5.296 2.358-5.37 2.368-8.528 6.716-9.198 12.27-.635 5.263-.272 10.668-.093 16.002.14 4.19 3.498 5.872 7.54 4.612 3.526-1.1 7.271-1.495 11.834-2.202z"
    />
    <path
      fill="#F5F5F5"
      d="M368.09 411.242c-1.421 8.444-2.789 16.467-4.158 24.496-7.533-1.525-12.377-7.877-11.572-14.968 1-8.814 7.016-13.974 16.313-13.575-.18 1.232-.354 2.43-.582 4.047m-4.119 3.589v-3.566c-8.384 6.553-9.211 10.677-3.558 16.687 1.205-4.17 2.382-8.238 3.558-13.121z"
    />
    <path
      fill="#47704C"
      d="M496.677 272.85c3.73-5.592 13.66-5.448 16.661-.045 2.914 5.244 2.914 5.244 2.55 16.307-5.843 2.429-11.819 6.392-17.626.347-3.932-4.092-4.482-11.425-1.585-16.609m8.845 7.132 7.375-3.049-.124-1.79-13.548-.765-.444 2.053c1.987 1.168 3.974 2.336 6.741 3.551zM393.764 343.813c-.776-7.603 4.217-13.935 11.137-13.113-3.822 4.686-7.29 8.936-11.137 13.113zM553.07 270.976c-2.832-.326-5.22-.652-7.607-.977l-.565-1.323c1.389-.884 2.928-2.682 4.138-2.483 3.954.65 9.458-3.019 11.946 4.395-2.754.143-5.11.265-7.911.388zM459.567 309.975c-7.75.004-13.936-4.94-14.542-11.28-.37-3.868 4.729-12.09 7.854-12.665 4.685-.86 11.3 3.254 13.065 8.127 3.007 8.301 2.005 10.963-6.377 15.818m-1.592-13.539-.885 3.085.89 1.191 6.521-3.907c-7.876-5.31-7.876-5.31-13.481-3.573 2.896 1.009 4.882 1.7 6.955 3.204zM677.043 552.901c-1.213.525-2.025 1.01-2.859 1.456-1.353.723-2.72 1.419-4.08 2.126-.101-1.625-.654-3.382-.227-4.854 1.976-6.796 3.949-7.802 9.392-5.398-.619 2.228-1.227 4.42-2.226 6.67zM398.246 536.135c2.442 2.111 4.856 3.887 6.435 6.227 1.86 2.76 2.998 6.006 4.738 9.647-7.342 1.808-10.444 11.46-18.173 6.96-4.991-2.905-9.128-7.79-7.15-14.73 1.177-4.127 8.314-8.237 14.15-8.104m2.73 12.399c2.86-2.036 1.95-4.169-.057-6.036-2.578-2.4-7.39-1.984-9.962.788l2.765 3.074-1.831 4.394c3.316-.663 5.928-1.186 9.085-2.22zM420.347 591.84c-1.14-1.835-2.001-3.402-2.862-4.968l.94-.6 11.969 10.497c-4.99 2.17-6.935-2.225-10.047-4.928zM362.984 491.978c-4.106.707-7.851 1.102-11.377 2.202-4.042 1.26-7.4-.422-7.54-4.612-.179-5.334-.542-10.74.093-16.003.67-5.553 3.828-9.901 9.198-12.269 1.768-.78 3.504-1.638 5.296-2.358 1.023-.411 2.6-1.223 3.125-.816 5.112 3.96 12.12 4.34 15.936 11.401 3.457 6.4 2.816 12.364 3.353 19.305-5.96 1.065-11.794 2.108-18.084 3.15m-5.914-14.114c.425.7.862 2.009 1.273 2 2.566-.05 5.322 1.166 7.099-2.488 1.678-3.451 1.916-5.952-2.144-9.122-1.201 2.104-2.188 3.985-3.327 5.769-.711 1.114-1.653 2.082-2.901 3.841zM363.972 415.238c-1.176 4.476-2.353 8.545-3.558 12.714-5.653-6.01-4.826-10.134 3.558-16.687v3.973z"
    />
    <path
      fill="#FFF"
      d="M505.132 279.959c-2.377-1.192-4.364-2.36-6.351-3.528l.444-2.053 13.548.764.124 1.791c-2.458 1.017-4.916 2.033-7.765 3.026zM457.931 296.03c-2.03-1.098-4.015-1.79-6.911-2.798 5.605-1.737 5.605-1.737 13.481 3.573l-6.521 3.907-.89-1.191c.295-1.029.59-2.057.841-3.491zM400.703 548.79c-2.884.778-5.496 1.3-8.812 1.964l1.831-4.394-2.765-3.074c2.572-2.772 7.384-3.187 9.962-.788 2.007 1.867 2.916 4-.216 6.292zM357.275 477.501c1.043-1.396 1.985-2.364 2.696-3.478 1.139-1.784 2.126-3.665 3.327-5.77 4.06 3.17 3.822 5.672 2.144 9.123-1.777 3.654-4.533 2.439-7.099 2.489-.411.008-.848-1.3-1.068-2.364z"
    />
  </svg>

